<svg width="26" height="26" viewBox="0 0 26 26" fill="none" xmlns="http://www.w3.org/2000/svg">
<path d="M20.4978 12.7412C20.3096 12.5294 20.0507 12.4118 19.7684 12.4118H19.2037V6.22353L19.6507 5.47059V3H16.8743V5.47059L17.3213 6.22353V12.4118H16.7566C16.4743 12.4118 16.2154 12.5294 16.0272 12.7412C15.839 12.9529 15.7449 13.2353 15.7919 13.4941L16.239 15.4706C16.2625 15.6118 16.2625 15.7765 16.2625 15.9176L15.8154 20.4118C15.7684 21.1176 16.0037 21.7529 16.4743 22.2471C16.9449 22.7412 17.5802 23 18.2625 23C18.9449 23 19.5801 22.7176 20.0507 22.2471C20.5213 21.7529 20.7566 21.1176 20.7331 20.4118L20.286 15.9176C20.286 15.7529 20.286 15.6118 20.3096 15.4471L20.7566 13.5412V13.4941C20.7801 13.2353 20.686 12.9529 20.4978 12.7412ZM17.5801 5.25882V3.70588H18.9449V5.25882L18.4978 6.01176V12.4118H18.0272V6.03529L17.5801 5.25882ZM19.6037 15.3294V15.3765C19.5802 15.5647 19.5801 15.7765 19.5801 15.9882L20.0272 20.4824C20.0507 20.9765 19.886 21.4235 19.5331 21.7765C19.1802 22.1294 18.7331 22.3176 18.2625 22.3176C17.7919 22.3176 17.3213 22.1294 16.9919 21.7765C16.6625 21.4235 16.4743 20.9529 16.4978 20.5059L16.9449 15.9882C16.9449 15.8 16.9449 15.5882 16.9213 15.4L16.4743 13.4235C16.4743 13.3529 16.4978 13.2824 16.5449 13.2118C16.5919 13.1412 16.6625 13.1176 16.7566 13.1176H17.3213H19.2037H19.7684C19.839 13.1176 19.9331 13.1412 19.9802 13.2118C20.0272 13.2588 20.0507 13.3294 20.0507 13.4235L19.6037 15.3294Z" fill="black"/>
<path d="M18.2626 13.9882C18.0743 13.9882 17.9096 14.1529 17.9096 14.3411V20.8352C17.9096 21.0235 18.0743 21.1882 18.2626 21.1882C18.4508 21.1882 18.6155 21.0235 18.6155 20.8352V14.3411C18.6155 14.1293 18.4508 13.9882 18.2626 13.9882Z" fill="black"/>
<path d="M11.6743 15.0942C11.5331 14.953 11.3214 14.953 11.1802 15.0942C11.039 15.2354 11.039 15.4472 11.1802 15.5883L11.6273 16.0354L10.9449 16.7178L10.6155 16.5766C10.4273 16.506 10.239 16.5766 10.1449 16.7413C10.0743 16.9295 10.1449 17.1178 10.3096 17.2119L10.3802 17.2354L9.88608 17.7295L9.55667 17.5883C9.36843 17.5178 9.1802 17.5883 9.08608 17.753C9.01549 17.9413 9.08608 18.1295 9.25079 18.2236L9.32137 18.2707L8.82726 18.7648L8.49784 18.6236C8.30961 18.553 8.12137 18.6236 8.02726 18.7883C7.95667 18.9766 8.02726 19.1648 8.19196 19.2589L8.26255 19.2825L7.86255 19.8236L7.53314 19.6589C7.3449 19.5883 7.15667 19.6589 7.06255 19.8236C6.99196 20.0119 7.06255 20.2001 7.22726 20.2942L7.29784 20.3178L6.82726 20.8589L6.49784 20.7178C6.30961 20.6472 6.12137 20.7178 6.02726 20.8825C5.95667 21.0707 6.02726 21.2589 6.19196 21.353L6.26255 21.4001L6.16843 21.4942C6.02726 21.6354 6.02726 21.8472 6.16843 21.9883C6.23902 22.0589 6.33314 22.0825 6.42726 22.0825C6.52137 22.0825 6.61549 22.0589 6.68608 21.9883L6.96843 21.706L7.22726 21.8236C7.27432 21.8472 7.32137 21.8472 7.36843 21.8472C7.50961 21.8472 7.62726 21.7766 7.69784 21.6354C7.76843 21.4472 7.69784 21.2589 7.53314 21.1648H7.50961L8.00373 20.6707L8.26255 20.7883C8.30961 20.8119 8.35667 20.8119 8.40373 20.8119C8.5449 20.8119 8.66255 20.7413 8.73314 20.6001C8.80373 20.4119 8.73314 20.2236 8.56843 20.1295H8.5449L9.03902 19.6354L9.29784 19.753C9.3449 19.7766 9.39196 19.7766 9.43902 19.7766C9.5802 19.7766 9.69784 19.706 9.76843 19.5648C9.83902 19.3766 9.76843 19.1883 9.60373 19.0942H9.5802L10.0743 18.6001L10.3331 18.7178C10.3802 18.7413 10.4273 18.7413 10.4743 18.7413C10.6155 18.7413 10.7331 18.6707 10.8037 18.5295C10.8743 18.3413 10.8037 18.153 10.639 18.0589H10.6155L11.1096 17.5648L11.3684 17.6825C11.4155 17.706 11.4861 17.706 11.5331 17.706C11.6743 17.706 11.792 17.6354 11.8626 17.4942C11.9331 17.306 11.8626 17.1178 11.6978 17.0236H11.6743L12.1684 16.5295L12.6155 16.9766C12.6861 17.0472 12.7802 17.0707 12.8743 17.0707C12.9684 17.0707 13.0626 17.0472 13.1331 16.9766C13.2743 16.8354 13.2743 16.6236 13.1331 16.4825L11.6743 15.0942Z" fill="black"/>
<path d="M13.5803 9.89422L12.8744 9.18834C12.7333 9.04716 12.5215 9.04716 12.3803 9.18834C12.2391 9.32952 12.2391 9.54128 12.3803 9.68246L12.8274 10.1295L12.145 10.8119L11.8156 10.6707C11.6274 10.6001 11.4391 10.6707 11.345 10.8354C11.2744 11.0236 11.345 11.2119 11.5097 11.306L11.5803 11.353L11.0862 11.8472L10.7568 11.706C10.5686 11.6354 10.3803 11.706 10.2862 11.8707C10.2156 12.0589 10.2862 12.2472 10.4509 12.3413L10.5215 12.3883L10.0274 12.8825L9.69797 12.7413C9.50973 12.6707 9.32149 12.7413 9.22738 12.906C9.15679 13.0942 9.22738 13.2825 9.39208 13.3766L9.46267 13.4001L8.96855 13.8942L8.63914 13.753C8.45091 13.6825 8.26267 13.753 8.16855 13.9178C8.09797 14.106 8.16855 14.2942 8.33326 14.3883L8.40385 14.4354L7.90973 14.9295L7.58032 14.7883C7.39208 14.7178 7.20385 14.7883 7.10973 14.953C7.03914 15.1413 7.10973 15.3295 7.27444 15.4236L7.34502 15.4472L7.25091 15.5413C7.10973 15.6825 7.10973 15.8942 7.25091 16.0354C7.32149 16.106 7.41561 16.1295 7.50973 16.1295C7.60385 16.1295 7.69796 16.106 7.76855 16.0354L8.05091 15.753L8.30973 15.8707C8.35679 15.8942 8.40385 15.8942 8.45091 15.8942C8.59208 15.8942 8.70973 15.8236 8.78032 15.6825C8.85091 15.4942 8.78032 15.306 8.61561 15.2119H8.59208L9.0862 14.7178L9.34502 14.8354C9.39208 14.8589 9.43914 14.8589 9.4862 14.8589C9.62738 14.8589 9.74502 14.7883 9.81561 14.6472C9.8862 14.4589 9.81561 14.2707 9.65091 14.1766H9.62738L10.1215 13.6825L10.3803 13.8001C10.4274 13.8236 10.4744 13.8236 10.5215 13.8236C10.6627 13.8236 10.7803 13.753 10.8509 13.6119C10.9215 13.4236 10.8509 13.2354 10.6862 13.1413H10.6627L11.1568 12.6472L11.4156 12.7648C11.4627 12.7883 11.5097 12.7883 11.5568 12.7883C11.698 12.7883 11.8156 12.7178 11.8862 12.5766C11.9568 12.3883 11.8862 12.2001 11.7215 12.106H11.698L12.1921 11.6119L12.4509 11.7295C12.498 11.753 12.545 11.753 12.5921 11.753C12.7333 11.753 12.8509 11.6825 12.9215 11.5413C12.9921 11.353 12.9215 11.1648 12.7568 11.0707H12.7333L13.2274 10.5766L13.6744 11.0236C13.745 11.0942 13.8391 11.1178 13.9333 11.1178C14.0274 11.1178 14.1215 11.0942 14.1921 11.0236C14.3333 10.8825 14.3333 10.6707 14.1921 10.5295L13.5803 9.89422Z" fill="black"/>
</svg>
