<svg width="60" height="60" viewBox="0 0 60 60" fill="none" xmlns="http://www.w3.org/2000/svg">
<path fill-rule="evenodd" clip-rule="evenodd" d="M39.3505 33.8295L44.4135 38.8925C44.7436 39.2226 44.8254 39.7067 44.6225 40.1261C44.4199 40.5445 43.9898 40.7785 43.5274 40.7264L40.0508 40.3201L40.457 43.7932C40.5106 44.2552 40.2751 44.685 39.8568 44.8883C39.7031 44.9633 39.5406 44.9998 39.3802 44.9998C39.1036 44.9998 38.8328 44.8915 38.6238 44.6839L32.9618 39.0219C31.468 39.9782 30.3268 40.6104 30.2935 40.6288L30.2928 40.6292C30.2378 40.6596 30.1771 40.6746 30.1163 40.6746C30.0556 40.6746 29.9949 40.6596 29.9398 40.6292L29.9392 40.6288C29.9056 40.6103 28.7643 39.978 27.2706 39.0222L21.6099 44.6829C21.4002 44.8911 21.129 44.9998 20.8521 44.9998C20.6917 44.9998 20.5295 44.9633 20.3759 44.8883C19.9575 44.685 19.7221 44.2552 19.7757 43.7936L20.1819 40.3201L16.7052 40.7264C16.2429 40.7785 15.8128 40.5445 15.6102 40.1261C15.4072 39.7067 15.4891 39.2226 15.8192 38.8925L20.882 33.8297C19.982 32.7519 19.5199 31.7744 19.5199 30.9238V21.2698C19.5199 21.139 19.5895 21.0183 19.7028 20.9529L29.9334 15.0485C30.047 14.9835 30.1856 14.9835 30.2993 15.0485L40.5299 20.9529C40.6431 21.0183 40.7128 21.139 40.7128 21.2698V30.9238C40.7128 31.7741 40.2509 32.7514 39.3505 33.8295ZM20.6957 44.2305C20.7478 44.2559 20.93 44.327 21.0937 44.1644L26.644 38.6141L26.6152 38.5948C26.4308 38.4724 26.2409 38.3444 26.0475 38.2122L25.973 38.1615C25.7788 38.0282 25.5808 37.8898 25.3809 37.7481L25.2689 37.6685C25.0707 37.527 24.8711 37.3821 24.6706 37.2335C24.6457 37.2151 24.621 37.1966 24.5962 37.1781C24.5845 37.1693 24.5728 37.1605 24.561 37.1518C24.3544 36.9976 24.1477 36.8408 23.9421 36.6804C23.9322 36.6727 23.9224 36.6649 23.9126 36.6571C23.9039 36.6502 23.8952 36.6433 23.8865 36.6364C23.6844 36.4781 23.484 36.3171 23.286 36.154C23.2645 36.1362 23.2427 36.1188 23.2212 36.1009C23.0222 35.936 22.8273 35.7686 22.6358 35.6C22.6266 35.5918 22.6174 35.5837 22.6082 35.5756C22.5835 35.5539 22.5588 35.5322 22.5342 35.5103C22.3472 35.3437 22.1652 35.1758 21.9888 35.0069C21.9665 34.9856 21.9447 34.9643 21.9228 34.943C21.9146 34.935 21.9065 34.9271 21.8983 34.9191C21.7191 34.7452 21.5455 34.5707 21.381 34.3957C21.3762 34.3906 21.3707 34.3855 21.3659 34.3804L16.3365 39.4098C16.174 39.5727 16.2433 39.7549 16.2686 39.8071C16.2936 39.8593 16.3926 40.0243 16.6202 39.9997L20.5563 39.5399C20.5706 39.5381 20.5849 39.5374 20.5988 39.5374C20.6953 39.5374 20.7885 39.5756 20.8575 39.6445C20.9368 39.7235 20.975 39.8346 20.9622 39.9457L20.5024 43.8783C20.4759 44.1051 20.6439 44.2052 20.6957 44.2305ZM30.1163 39.8893C30.5168 39.662 31.5579 39.0607 32.8131 38.2476C34.268 37.3015 36.1614 35.9684 37.6362 34.577C37.9766 34.2559 38.2946 33.9316 38.5799 33.6083C39.5099 32.5619 39.9811 31.659 39.9811 30.9238V21.4809L30.1163 15.7877L20.2516 21.4809V30.9238C20.2516 31.659 20.7227 32.5618 21.6515 33.6074C21.6519 33.6078 21.6524 33.6079 21.6528 33.6083C22.5085 34.5782 23.6596 35.5564 24.8218 36.4341L24.8513 36.4561C25.3581 36.838 25.8665 37.2009 26.353 37.5352C26.725 37.7908 27.0841 38.0298 27.42 38.2483C28.6747 39.0607 29.7155 39.662 30.1163 39.8893ZM43.6125 39.9997C43.8404 40.0236 43.939 39.8589 43.964 39.8071C43.9894 39.7549 44.0587 39.5727 43.8961 39.4098L38.8668 34.3804C38.8605 34.3871 38.8533 34.3937 38.847 34.4004C38.6854 34.5723 38.5148 34.7437 38.339 34.9145C38.3292 34.9239 38.3195 34.9334 38.3098 34.9428C38.2866 34.9654 38.2635 34.988 38.2398 35.0106C38.0654 35.1776 37.8855 35.3435 37.7008 35.5082C37.6652 35.5398 37.6294 35.5712 37.5936 35.6028C37.4035 35.7701 37.2102 35.9361 37.0128 36.0998C36.9896 36.1191 36.9661 36.1378 36.9429 36.157C36.7479 36.3176 36.5505 36.4762 36.3515 36.6322C36.3416 36.6399 36.3318 36.6477 36.3219 36.6556C36.3107 36.6645 36.2995 36.6734 36.2882 36.6822C36.0854 36.8404 35.8815 36.995 35.6776 37.1472C35.6684 37.1541 35.6593 37.1609 35.6501 37.1678C35.6191 37.191 35.5881 37.2141 35.557 37.2372C35.3613 37.3821 35.1664 37.5236 34.9729 37.6618C34.9275 37.6943 34.8828 37.726 34.8375 37.758C34.6476 37.8925 34.4594 38.0242 34.2747 38.151C34.2311 38.1809 34.1891 38.2092 34.1458 38.2387C33.9872 38.3469 33.8313 38.452 33.6787 38.5535C33.6647 38.5628 33.6503 38.5726 33.6359 38.5824C33.62 38.5932 33.604 38.604 33.5887 38.6141L39.1401 44.1655C39.3019 44.3259 39.4848 44.2559 39.537 44.2305C39.5888 44.2052 39.7567 44.1051 39.7303 43.8779L39.2705 39.9457C39.2576 39.8346 39.2959 39.7235 39.3752 39.6445C39.4541 39.5656 39.5631 39.5252 39.6763 39.5399L43.6125 39.9997ZM33.3501 23.074C33.4626 23.0836 33.5405 23.1115 33.6094 23.1794L35.5277 25.0704C35.6716 25.2123 35.6731 25.4438 35.5312 25.5878L28.7294 32.4911C28.6604 32.5611 28.5665 32.6 28.4689 32.6C28.4636 32.6 28.4582 32.5998 28.4529 32.5996L28.4486 32.5993C28.3435 32.5936 28.2464 32.5429 28.1813 32.4604L24.6743 27.9976C24.6143 27.9211 24.5871 27.8243 24.5986 27.7279C24.6104 27.6314 24.6597 27.5435 24.7361 27.4838L26.8548 25.8204C27.0134 25.6946 27.2438 25.7232 27.3682 25.8818L28.7283 27.6128L33.0921 23.1829C33.16 23.114 33.2529 23.0747 33.3501 23.074ZM25.4757 27.8333L28.5 31.6815L34.7534 25.3348L33.3565 23.9572L28.9577 28.4224C28.8845 28.4971 28.7809 28.536 28.6769 28.5307C28.5718 28.5249 28.4747 28.4742 28.4096 28.3917L27.0188 26.6217L25.4757 27.8333Z" fill="white"/>
<path d="M44.4135 38.8925L44.2367 39.0692L44.4135 38.8925ZM39.3505 33.8295L39.1586 33.6692L39.0121 33.8447L39.1737 34.0063L39.3505 33.8295ZM44.6225 40.1261L44.8475 40.2351L44.8475 40.235L44.6225 40.1261ZM43.5274 40.7264L43.4984 40.9747L43.4994 40.9748L43.5274 40.7264ZM40.0508 40.3201L40.0798 40.0718L39.7657 40.0351L39.8025 40.3492L40.0508 40.3201ZM40.457 43.7932L40.7053 43.7644L40.7053 43.7642L40.457 43.7932ZM39.8568 44.8883L39.7475 44.6634L39.7471 44.6636L39.8568 44.8883ZM38.6238 44.6839L38.447 44.8607L38.4476 44.8613L38.6238 44.6839ZM32.9618 39.0219L33.1386 38.8451L32.9964 38.7029L32.827 38.8114L32.9618 39.0219ZM30.2935 40.6288L30.1723 40.4101L30.1719 40.4104L30.2935 40.6288ZM30.2928 40.6292L30.4136 40.8481L30.4144 40.8477L30.2928 40.6292ZM29.9398 40.6292L29.8185 40.8478L29.819 40.8481L29.9398 40.6292ZM29.9392 40.6288L30.0605 40.4102L30.0603 40.4101L29.9392 40.6288ZM27.2706 39.0222L27.4054 38.8116L27.236 38.7032L27.0938 38.8454L27.2706 39.0222ZM21.6099 44.6829L21.7861 44.8602L21.7867 44.8596L21.6099 44.6829ZM20.3759 44.8883L20.4856 44.6636L20.4852 44.6634L20.3759 44.8883ZM19.7757 43.7936L19.5274 43.7646L19.5273 43.7648L19.7757 43.7936ZM20.1819 40.3201L20.4302 40.3492L20.4669 40.0351L20.1529 40.0718L20.1819 40.3201ZM16.7052 40.7264L16.7333 40.9748L16.7342 40.9747L16.7052 40.7264ZM15.6102 40.1261L15.3851 40.235L15.3852 40.2351L15.6102 40.1261ZM15.8192 38.8925L15.996 39.0692L15.8192 38.8925ZM20.882 33.8297L21.0587 34.0065L21.2203 33.8449L21.0739 33.6695L20.882 33.8297ZM19.7028 20.9529L19.5778 20.7364L19.5778 20.7364L19.7028 20.9529ZM29.9334 15.0485L29.8092 14.8315L29.8084 14.832L29.9334 15.0485ZM30.2993 15.0485L30.4242 14.832L30.4234 14.8315L30.2993 15.0485ZM40.5299 20.9529L40.6549 20.7364L40.6548 20.7364L40.5299 20.9529ZM21.0937 44.1644L21.2699 44.3418L21.2704 44.3412L21.0937 44.1644ZM20.6957 44.2305L20.5857 44.4551L20.5863 44.4554L20.6957 44.2305ZM26.644 38.6141L26.8207 38.7909L27.0353 38.5763L26.7836 38.4068L26.644 38.6141ZM26.6152 38.5948L26.7549 38.3874L26.7535 38.3865L26.6152 38.5948ZM26.0475 38.2122L26.1885 38.0058L26.1882 38.0055L26.0475 38.2122ZM25.973 38.1615L25.8315 38.3676L25.8323 38.3681L25.973 38.1615ZM25.3809 37.7481L25.2361 37.9519L25.2363 37.952L25.3809 37.7481ZM25.2689 37.6685L25.1237 37.872L25.1241 37.8723L25.2689 37.6685ZM24.6706 37.2335L24.5218 37.4344L24.5218 37.4344L24.6706 37.2335ZM24.5962 37.1781L24.4465 37.3783L24.4465 37.3783L24.5962 37.1781ZM24.561 37.1518L24.7106 36.9514L24.7105 36.9514L24.561 37.1518ZM23.9421 36.6804L24.0958 36.4833L24.0958 36.4832L23.9421 36.6804ZM23.9126 36.6571L23.757 36.8528L23.757 36.8528L23.9126 36.6571ZM23.8865 36.6364L23.7323 36.8332L23.7323 36.8333L23.8865 36.6364ZM23.286 36.154L23.1269 36.3468L23.127 36.3469L23.286 36.154ZM23.2212 36.1009L23.0616 36.2934L23.0616 36.2934L23.2212 36.1009ZM22.6358 35.6L22.4706 35.7875L22.4706 35.7876L22.6358 35.6ZM22.6082 35.5756L22.7733 35.3879L22.7733 35.3879L22.6082 35.5756ZM22.5342 35.5103L22.7006 35.3237L22.7006 35.3237L22.5342 35.5103ZM21.9888 35.0069L21.8158 35.1874L21.8159 35.1875L21.9888 35.0069ZM21.9228 34.943L21.7484 35.1221L21.7484 35.1221L21.9228 34.943ZM21.8983 34.9191L22.0724 34.7398L22.0724 34.7397L21.8983 34.9191ZM21.381 34.3957L21.1988 34.5668L21.1988 34.5669L21.381 34.3957ZM21.3659 34.3804L21.5482 34.2093L21.3716 34.0212L21.1891 34.2036L21.3659 34.3804ZM16.3365 39.4098L16.1597 39.233L16.1596 39.2332L16.3365 39.4098ZM16.2686 39.8071L16.4941 39.699L16.4935 39.6978L16.2686 39.8071ZM16.6202 39.9997L16.6471 40.2482L16.6492 40.248L16.6202 39.9997ZM20.5563 39.5399L20.5853 39.7882L20.5873 39.7879L20.5563 39.5399ZM20.8575 39.6445L20.6807 39.8213L20.6811 39.8217L20.8575 39.6445ZM20.9622 39.9457L21.2105 39.9748L21.2105 39.9745L20.9622 39.9457ZM20.5024 43.8783L20.2541 43.8492L20.254 43.8493L20.5024 43.8783ZM32.8131 38.2476L32.949 38.4574L32.9493 38.4572L32.8131 38.2476ZM30.1163 39.8893L29.9931 40.1068L30.1164 40.1767L30.2397 40.1067L30.1163 39.8893ZM37.6362 34.577L37.4646 34.3951L37.4646 34.3951L37.6362 34.577ZM38.5799 33.6083L38.393 33.4423L38.3924 33.4429L38.5799 33.6083ZM39.9811 21.4809H40.2311V21.3366L40.1061 21.2644L39.9811 21.4809ZM30.1163 15.7877L30.2413 15.5712L30.1163 15.4991L29.9914 15.5712L30.1163 15.7877ZM20.2516 21.4809L20.1266 21.2644L20.0016 21.3366V21.4809H20.2516ZM21.6515 33.6074L21.4646 33.7734L21.4647 33.7734L21.6515 33.6074ZM21.6528 33.6083L21.8403 33.4429L21.8393 33.4418L21.6528 33.6083ZM24.8218 36.4341L24.6711 36.6336L24.6724 36.6346L24.8218 36.4341ZM24.8513 36.4561L25.0018 36.2565L25.0007 36.2557L24.8513 36.4561ZM26.353 37.5352L26.2114 37.7413L26.2114 37.7413L26.353 37.5352ZM27.42 38.2483L27.2836 38.4579L27.2841 38.4581L27.42 38.2483ZM43.964 39.8071L43.7392 39.6978L43.7389 39.6984L43.964 39.8071ZM43.6125 39.9997L43.5835 40.248L43.5864 40.2483L43.6125 39.9997ZM43.8961 39.4098L44.0731 39.2332L44.0729 39.233L43.8961 39.4098ZM38.8668 34.3804L39.0435 34.2036L38.8606 34.0207L38.684 34.2098L38.8668 34.3804ZM38.847 34.4004L39.0291 34.5717L39.0291 34.5716L38.847 34.4004ZM38.339 34.9145L38.5131 35.0938L38.5132 35.0938L38.339 34.9145ZM38.3098 34.9428L38.4843 35.1219H38.4843L38.3098 34.9428ZM38.2398 35.0106L38.067 34.83L38.0669 34.83L38.2398 35.0106ZM37.7008 35.5082L37.8671 35.6948L37.8672 35.6948L37.7008 35.5082ZM37.5936 35.6028L37.4284 35.4151L37.5936 35.6028ZM37.0128 36.0998L36.8532 35.9074L36.8532 35.9074L37.0128 36.0998ZM36.9429 36.157L37.1018 36.3499L37.1019 36.3499L36.9429 36.157ZM36.3515 36.6322L36.5056 36.829L36.5057 36.829L36.3515 36.6322ZM36.3219 36.6556L36.1663 36.4599L36.1663 36.4599L36.3219 36.6556ZM36.2882 36.6822L36.1345 36.485L36.1345 36.4851L36.2882 36.6822ZM35.6776 37.1472L35.5281 36.9468L35.5279 36.947L35.6776 37.1472ZM35.6501 37.1678L35.5003 36.9676L35.5003 36.9676L35.6501 37.1678ZM35.557 37.2372L35.7058 37.4381L35.7059 37.4381L35.557 37.2372ZM34.9729 37.6618L35.1182 37.8653L35.1182 37.8653L34.9729 37.6618ZM34.8375 37.758L34.6931 37.554L34.693 37.554L34.8375 37.758ZM34.2747 38.151L34.4162 38.3571L34.4162 38.3571L34.2747 38.151ZM34.1458 38.2387L34.2867 38.4453L34.2867 38.4453L34.1458 38.2387ZM33.6787 38.5535L33.8172 38.7617L33.8172 38.7617L33.6787 38.5535ZM33.6359 38.5824L33.7763 38.7892L33.7763 38.7892L33.6359 38.5824ZM33.5887 38.6141L33.4506 38.4057L33.1957 38.5747L33.4119 38.7909L33.5887 38.6141ZM39.1401 44.1655L38.9633 44.3423L38.9641 44.3431L39.1401 44.1655ZM39.537 44.2305L39.6463 44.4554L39.6469 44.4551L39.537 44.2305ZM39.7303 43.8779L39.9786 43.849L39.9786 43.8489L39.7303 43.8779ZM39.2705 39.9457L39.0221 39.9745L39.0222 39.9748L39.2705 39.9457ZM39.3752 39.6445L39.5515 39.8217L39.5519 39.8213L39.3752 39.6445ZM39.6763 39.5399L39.6443 39.7878L39.6473 39.7882L39.6763 39.5399ZM33.6094 23.1794L33.785 23.0013L33.7848 23.0012L33.6094 23.1794ZM33.3501 23.074L33.3714 22.8249L33.3598 22.8239L33.3482 22.824L33.3501 23.074ZM35.5277 25.0704L35.3522 25.2485L35.3522 25.2485L35.5277 25.0704ZM35.5312 25.5878L35.7093 25.7632L35.7093 25.7632L35.5312 25.5878ZM28.7294 32.4911L28.5513 32.3156L28.5513 32.3157L28.7294 32.4911ZM28.4529 32.5996L28.44 32.8492L28.4403 32.8492L28.4529 32.5996ZM28.4486 32.5993L28.435 32.849L28.4357 32.849L28.4486 32.5993ZM28.1813 32.4604L27.9848 32.6148L27.985 32.6151L28.1813 32.4604ZM24.6743 27.9976L24.4777 28.152L24.4777 28.1521L24.6743 27.9976ZM24.5986 27.7279L24.3504 27.6975L24.3503 27.6984L24.5986 27.7279ZM24.7361 27.4838L24.8899 27.6809L24.8905 27.6805L24.7361 27.4838ZM26.8548 25.8204L27.0092 26.017L27.0101 26.0163L26.8548 25.8204ZM27.3682 25.8818L27.1714 26.036L27.1716 26.0363L27.3682 25.8818ZM28.7283 27.6128L28.5318 27.7673L28.7072 27.9905L28.9064 27.7883L28.7283 27.6128ZM33.0921 23.1829L33.2702 23.3584L33.2703 23.3583L33.0921 23.1829ZM28.5 31.6815L28.3035 31.836L28.4789 32.0592L28.6781 31.8569L28.5 31.6815ZM25.4757 27.8333L25.3213 27.6366L25.1246 27.7911L25.2791 27.9877L25.4757 27.8333ZM34.7534 25.3348L34.9315 25.5103L35.1069 25.3323L34.929 25.1568L34.7534 25.3348ZM33.3565 23.9572L33.532 23.7792L33.3539 23.6035L33.1784 23.7817L33.3565 23.9572ZM28.9577 28.4224L28.7796 28.247L28.7792 28.2473L28.9577 28.4224ZM28.6769 28.5307L28.6633 28.7803L28.664 28.7803L28.6769 28.5307ZM28.4096 28.3917L28.2131 28.5462L28.2133 28.5464L28.4096 28.3917ZM27.0188 26.6217L27.2153 26.4673L27.0609 26.2708L26.8644 26.4251L27.0188 26.6217ZM44.5903 38.7157L39.5273 33.6527L39.1737 34.0063L44.2367 39.0692L44.5903 38.7157ZM44.8475 40.235C45.0969 39.7197 44.9955 39.121 44.5903 38.7157L44.2367 39.0692C44.4917 39.3242 44.554 39.6937 44.3974 40.0173L44.8475 40.235ZM43.4994 40.9748C44.0658 41.0387 44.5981 40.7501 44.8475 40.2351L44.3975 40.0172C44.2417 40.3389 43.9137 40.5184 43.5555 40.4779L43.4994 40.9748ZM40.0218 40.5685L43.4984 40.9747L43.5564 40.4781L40.0798 40.0718L40.0218 40.5685ZM40.7053 43.7642L40.2991 40.2911L39.8025 40.3492L40.2087 43.8223L40.7053 43.7642ZM39.966 45.1131C40.48 44.8634 40.7712 44.3318 40.7053 43.7644L40.2087 43.822C40.25 44.1786 40.0703 44.5066 39.7475 44.6634L39.966 45.1131ZM39.3802 45.2498C39.5787 45.2498 39.7788 45.2046 39.9665 45.1129L39.7471 44.6636C39.6275 44.722 39.5025 44.7498 39.3802 44.7498V45.2498ZM38.4476 44.8613C38.7033 45.1153 39.0374 45.2498 39.3802 45.2498V44.7498C39.1698 44.7498 38.9623 44.6678 38.8 44.5065L38.4476 44.8613ZM32.785 39.1987L38.447 44.8607L38.8006 44.5071L33.1386 38.8451L32.785 39.1987ZM30.4146 40.8475C30.4506 40.8276 31.5967 40.1926 33.0966 39.2325L32.827 38.8114C31.3393 39.7638 30.203 40.3931 30.1723 40.4101L30.4146 40.8475ZM30.4144 40.8477L30.415 40.8473L30.1719 40.4104L30.1713 40.4107L30.4144 40.8477ZM30.1163 40.9246C30.2183 40.9246 30.3207 40.8993 30.4136 40.8481L30.172 40.4103C30.1549 40.4198 30.1358 40.4246 30.1163 40.4246V40.9246ZM29.819 40.8481C29.9119 40.8993 30.0144 40.9246 30.1163 40.9246V40.4246C30.0968 40.4246 30.0778 40.4198 30.0606 40.4103L29.819 40.8481ZM29.8179 40.8474L29.8185 40.8478L30.0611 40.4106L30.0605 40.4102L29.8179 40.8474ZM27.1358 39.2328C28.6355 40.1924 29.7819 40.8275 29.818 40.8475L30.0603 40.4101C30.0294 40.393 28.893 39.7636 27.4054 38.8116L27.1358 39.2328ZM21.7867 44.8596L27.4474 39.199L27.0938 38.8454L21.4332 44.5061L21.7867 44.8596ZM20.8521 45.2498C21.1955 45.2498 21.5298 45.1148 21.7861 44.8602L21.4338 44.5055C21.2706 44.6675 21.0626 44.7498 20.8521 44.7498V45.2498ZM20.2662 45.1129C20.4538 45.2046 20.6535 45.2498 20.8521 45.2498V44.7498C20.7299 44.7498 20.6052 44.7221 20.4856 44.6636L20.2662 45.1129ZM19.5273 43.7648C19.4615 44.3319 19.7527 44.8634 20.2666 45.1131L20.4852 44.6634C20.1623 44.5066 19.9827 44.1785 20.024 43.8224L19.5273 43.7648ZM19.9336 40.2911L19.5274 43.7646L20.024 43.8226L20.4302 40.3492L19.9336 40.2911ZM16.7342 40.9747L20.2109 40.5685L20.1529 40.0718L16.6762 40.4781L16.7342 40.9747ZM15.3852 40.2351C15.6345 40.7501 16.1669 41.0387 16.7333 40.9748L16.6772 40.4779C16.319 40.5184 15.991 40.3389 15.8352 40.0172L15.3852 40.2351ZM15.6424 38.7157C15.2371 39.121 15.1358 39.7197 15.3851 40.235L15.8352 40.0173C15.6787 39.6937 15.741 39.3242 15.996 39.0692L15.6424 38.7157ZM20.7052 33.6529L15.6424 38.7157L15.996 39.0692L21.0587 34.0065L20.7052 33.6529ZM19.2699 30.9238C19.2699 31.8612 19.7759 32.8951 20.6901 33.9899L21.0739 33.6695C20.1881 32.6087 19.7699 31.6875 19.7699 30.9238H19.2699ZM19.2699 21.2698V30.9238H19.7699V21.2698H19.2699ZM19.5778 20.7364C19.3871 20.8464 19.2699 21.0498 19.2699 21.2698H19.7699C19.7699 21.2283 19.7919 21.1901 19.8278 21.1694L19.5778 20.7364ZM29.8084 14.832L19.5778 20.7364L19.8277 21.1694L30.0584 15.2651L29.8084 14.832ZM30.4234 14.8315C30.2329 14.7225 29.9998 14.7225 29.8092 14.8315L30.0576 15.2655C30.0943 15.2445 30.1384 15.2445 30.1751 15.2655L30.4234 14.8315ZM40.6548 20.7364L30.4242 14.832L30.1743 15.2651L40.4049 21.1694L40.6548 20.7364ZM40.9628 21.2698C40.9628 21.0498 40.8455 20.8464 40.6549 20.7364L40.4049 21.1694C40.4407 21.1901 40.4628 21.2283 40.4628 21.2698H40.9628ZM40.9628 30.9238V21.2698H40.4628V30.9238H40.9628ZM39.5424 33.9897C40.457 32.8947 40.9628 31.861 40.9628 30.9238H40.4628C40.4628 31.6873 40.0448 32.6082 39.1586 33.6692L39.5424 33.9897ZM20.9175 43.9871C20.9002 44.0043 20.8872 44.0108 20.8797 44.0137C20.8718 44.0168 20.8639 44.0181 20.855 44.018C20.8341 44.0178 20.8137 44.0099 20.805 44.0057L20.5863 44.4554C20.6629 44.4926 20.9869 44.6229 21.2699 44.3418L20.9175 43.9871ZM26.4672 38.4374L20.9169 43.9877L21.2704 44.3412L26.8207 38.7909L26.4672 38.4374ZM26.4755 38.8021L26.5043 38.8215L26.7836 38.4068L26.7549 38.3874L26.4755 38.8021ZM25.9064 38.4186C26.1007 38.5514 26.2915 38.68 26.477 38.8031L26.7535 38.3865C26.57 38.2648 26.3811 38.1374 26.1885 38.0058L25.9064 38.4186ZM25.8323 38.3681L25.9068 38.4188L26.1882 38.0055L26.1137 37.9548L25.8323 38.3681ZM25.2363 37.952C25.4371 38.0944 25.6362 38.2335 25.8315 38.3676L26.1144 37.9553C25.9215 37.8229 25.7246 37.6853 25.5255 37.5441L25.2363 37.952ZM25.1241 37.8723L25.2361 37.9519L25.5257 37.5443L25.4137 37.4647L25.1241 37.8723ZM24.5218 37.4344C24.7236 37.5839 24.9244 37.7297 25.1237 37.872L25.4142 37.465C25.2171 37.3244 25.0187 37.1803 24.8194 37.0327L24.5218 37.4344ZM24.4465 37.3783C24.4712 37.3968 24.4964 37.4156 24.5218 37.4344L24.8194 37.0327C24.7951 37.0146 24.7708 36.9965 24.746 36.9779L24.4465 37.3783ZM24.4115 37.3521C24.4231 37.3608 24.4347 37.3695 24.4465 37.3783L24.746 36.9779C24.7343 36.9692 24.7225 36.9603 24.7106 36.9514L24.4115 37.3521ZM23.7883 36.8775C23.9957 37.0393 24.2038 37.1972 24.4115 37.3521L24.7105 36.9514C24.5049 36.798 24.2997 36.6423 24.0958 36.4833L23.7883 36.8775ZM23.757 36.8528C23.7666 36.8604 23.7774 36.869 23.7884 36.8776L24.0958 36.4832C24.087 36.4764 24.0782 36.4694 24.0682 36.4615L23.757 36.8528ZM23.7323 36.8333C23.7402 36.8394 23.7482 36.8458 23.757 36.8528L24.0683 36.4615C24.0597 36.4547 24.0502 36.4472 24.0406 36.4396L23.7323 36.8333ZM23.127 36.3469C23.3266 36.5114 23.5286 36.6736 23.7323 36.8332L24.0407 36.4396C23.8401 36.2826 23.6414 36.1229 23.4451 35.9611L23.127 36.3469ZM23.0616 36.2934C23.0774 36.3065 23.1155 36.3373 23.1269 36.3468L23.4452 35.9611C23.4135 35.935 23.408 35.9311 23.3807 35.9084L23.0616 36.2934ZM22.4706 35.7876C22.6636 35.9576 22.8604 36.1266 23.0616 36.2934L23.3807 35.9085C23.184 35.7453 22.991 35.5796 22.8011 35.4123L22.4706 35.7876ZM22.4431 35.7634C22.4523 35.7715 22.4614 35.7795 22.4706 35.7875L22.8011 35.4124C22.7918 35.4042 22.7825 35.396 22.7733 35.3879L22.4431 35.7634ZM22.3679 35.697C22.3932 35.7195 22.4185 35.7417 22.4431 35.7634L22.7733 35.3879C22.7485 35.3661 22.7244 35.3449 22.7006 35.3237L22.3679 35.697ZM21.8159 35.1875C21.9946 35.3585 22.1788 35.5285 22.3679 35.697L22.7006 35.3237C22.5157 35.1589 22.3359 34.9931 22.1617 34.8263L21.8159 35.1875ZM21.7484 35.1221C21.7702 35.1433 21.7928 35.1653 21.8158 35.1874L22.1618 34.8264C22.1403 34.8058 22.1192 34.7852 22.0972 34.7638L21.7484 35.1221ZM21.7241 35.0984C21.7322 35.1063 21.7402 35.1142 21.7484 35.1221L22.0972 34.7638C22.089 34.7559 22.0807 34.7478 22.0724 34.7398L21.7241 35.0984ZM21.1988 34.5669C21.3666 34.7454 21.543 34.9227 21.7241 35.0985L22.0724 34.7397C21.8952 34.5677 21.7244 34.396 21.5632 34.2245L21.1988 34.5669ZM21.1836 34.5515C21.187 34.5551 21.1901 34.5582 21.1924 34.5605C21.1946 34.5628 21.1967 34.5649 21.1978 34.566C21.1993 34.5674 21.1997 34.5679 21.2 34.5682C21.2003 34.5684 21.1997 34.5679 21.1988 34.5668L21.5633 34.2246C21.5599 34.221 21.5569 34.2179 21.5546 34.2156C21.5524 34.2134 21.5502 34.2113 21.5491 34.2101C21.5477 34.2087 21.5472 34.2083 21.5469 34.208C21.5467 34.2077 21.5472 34.2083 21.5482 34.2093L21.1836 34.5515ZM16.5133 39.5866L21.5427 34.5572L21.1891 34.2036L16.1597 39.233L16.5133 39.5866ZM16.4935 39.6978C16.4899 39.6905 16.4822 39.6704 16.4821 39.6494C16.4821 39.6405 16.4834 39.6324 16.4866 39.6244C16.4896 39.6167 16.4963 39.6036 16.5135 39.5864L16.1596 39.2332C15.8791 39.5143 16.0054 39.8374 16.0438 39.9164L16.4935 39.6978ZM16.5933 39.7511C16.5689 39.7538 16.5543 39.7508 16.5463 39.7484C16.5379 39.7458 16.5307 39.7418 16.5239 39.7364C16.5078 39.7236 16.4972 39.7056 16.4941 39.699L16.0432 39.9152C16.0821 39.9963 16.2559 40.2906 16.6471 40.2482L16.5933 39.7511ZM20.5273 39.2915L16.5912 39.7514L16.6492 40.248L20.5853 39.7882L20.5273 39.2915ZM20.5988 39.2874C20.5765 39.2874 20.5517 39.2885 20.5253 39.2918L20.5873 39.7879C20.5895 39.7876 20.5933 39.7874 20.5988 39.7874V39.2874ZM21.0343 39.4678C20.9182 39.3517 20.7613 39.2874 20.5988 39.2874V39.7874C20.6293 39.7874 20.6589 39.7995 20.6807 39.8213L21.0343 39.4678ZM21.2105 39.9745C21.2321 39.7883 21.1681 39.601 21.0339 39.4674L20.6811 39.8217C20.7055 39.846 20.718 39.881 20.7138 39.917L21.2105 39.9745ZM20.7507 43.9073L21.2105 39.9748L20.7139 39.9167L20.2541 43.8492L20.7507 43.9073ZM20.8056 44.006C20.7973 44.0019 20.7783 43.9906 20.765 43.974C20.7594 43.9669 20.7555 43.9598 20.7531 43.9519C20.7508 43.9444 20.748 43.9306 20.7507 43.9072L20.254 43.8493C20.2082 44.2431 20.5101 44.418 20.5857 44.4551L20.8056 44.006ZM32.6771 38.0378C31.4274 38.8474 30.3908 39.4461 29.993 39.6718L30.2397 40.1067C30.6429 39.878 31.6885 39.2741 32.949 38.4574L32.6771 38.0378ZM37.4646 34.3951C36.0062 35.7712 34.1275 37.0947 32.6768 38.038L32.9493 38.4572C34.4084 37.5084 36.3166 36.1657 37.8078 34.7588L37.4646 34.3951ZM38.3924 33.4429C38.1132 33.7594 37.8006 34.0782 37.4646 34.3951L37.8078 34.7588C38.1525 34.4335 38.4761 34.1038 38.7673 33.7737L38.3924 33.4429ZM39.7311 30.9238C39.7311 31.5624 39.3145 32.4054 38.393 33.4423L38.7667 33.7744C39.7052 32.7184 40.2311 31.7557 40.2311 30.9238H39.7311ZM39.7311 21.4809V30.9238H40.2311V21.4809H39.7311ZM29.9914 16.0043L39.8561 21.6975L40.1061 21.2644L30.2413 15.5712L29.9914 16.0043ZM20.3765 21.6975L30.2413 16.0043L29.9914 15.5712L20.1266 21.2644L20.3765 21.6975ZM20.5016 30.9238V21.4809H20.0016V30.9238H20.5016ZM21.8384 33.4414C20.9181 32.4053 20.5016 31.5624 20.5016 30.9238H20.0016C20.0016 31.7556 20.5273 32.7182 21.4646 33.7734L21.8384 33.4414ZM21.8393 33.4418C21.8232 33.4238 21.8076 33.4117 21.7978 33.4046C21.7929 33.4011 21.7887 33.3984 21.7862 33.3969C21.785 33.396 21.7839 33.3954 21.7833 33.395C21.783 33.3948 21.7827 33.3946 21.7825 33.3945C21.7824 33.3945 21.7824 33.3944 21.7823 33.3944C21.7823 33.3944 21.7823 33.3944 21.7823 33.3944C21.7823 33.3944 21.7823 33.3944 21.7823 33.3944C21.7823 33.3944 21.7823 33.3944 21.7823 33.3944C21.7823 33.3944 21.7823 33.3944 21.7823 33.3944C21.7819 33.3942 21.7838 33.3953 21.7861 33.3967C21.7885 33.3983 21.7926 33.4009 21.7974 33.4044C21.8071 33.4114 21.8225 33.4234 21.8384 33.4413L21.4647 33.7734C21.4808 33.7916 21.4963 33.8038 21.5062 33.8109C21.5112 33.8144 21.5154 33.8172 21.5179 33.8188C21.5192 33.8196 21.5203 33.8203 21.521 33.8207C21.5213 33.8209 21.5216 33.8211 21.5218 33.8212C21.5219 33.8213 21.5221 33.8213 21.5221 33.8213C21.5225 33.8216 21.5206 33.8205 21.5184 33.8191C21.516 33.8176 21.512 33.815 21.5072 33.8115C21.4976 33.8046 21.4823 33.7927 21.4663 33.7748L21.8393 33.4418ZM24.9725 36.2346C23.816 35.3613 22.68 34.3947 21.8403 33.4429L21.4653 33.7737C22.3371 34.7618 23.5032 35.7516 24.6711 36.6336L24.9725 36.2346ZM25.0007 36.2557L24.9712 36.2337L24.6724 36.6346L24.702 36.6566L25.0007 36.2557ZM26.4946 37.3292C26.0106 36.9966 25.5052 36.6359 25.0018 36.2565L24.7009 36.6558C25.211 37.0402 25.7224 37.4052 26.2114 37.7413L26.4946 37.3292ZM27.5563 38.0387C27.222 37.8213 26.8646 37.5834 26.4946 37.3292L26.2114 37.7413C26.5853 37.9982 26.9463 38.2384 27.2836 38.4579L27.5563 38.0387ZM30.2396 39.6718C29.8415 39.4461 28.8053 38.8474 27.5558 38.0384L27.2841 38.4581C28.5442 39.2741 29.5894 39.8779 29.9931 40.1068L30.2396 39.6718ZM43.7389 39.6984C43.7356 39.7053 43.725 39.7232 43.7089 39.736C43.7021 39.7414 43.6948 39.7454 43.6862 39.7481C43.678 39.7506 43.6632 39.7536 43.6386 39.751L43.5864 40.2483C43.9772 40.2893 44.1503 39.9962 44.1892 39.9158L43.7389 39.6984ZM43.7192 39.5864C43.7364 39.6036 43.7431 39.6167 43.7461 39.6244C43.7492 39.6324 43.7506 39.6405 43.7506 39.6494C43.7505 39.6704 43.7427 39.6905 43.7392 39.6978L44.1889 39.9164C44.2273 39.8374 44.3536 39.5143 44.0731 39.2332L43.7192 39.5864ZM38.69 34.5572L43.7194 39.5866L44.0729 39.233L39.0435 34.2036L38.69 34.5572ZM39.0291 34.5716C39.0284 34.5725 39.0282 34.5726 39.0323 34.5685C39.0351 34.5658 39.0422 34.5588 39.0495 34.551L38.684 34.2098C38.685 34.2087 38.6854 34.2084 38.6814 34.2123C38.6789 34.2149 38.6719 34.2217 38.6648 34.2292L39.0291 34.5716ZM38.5132 35.0938C38.6908 34.9212 38.8643 34.747 39.0291 34.5717L38.6648 34.2292C38.5065 34.3976 38.3387 34.5662 38.1648 34.7352L38.5132 35.0938ZM38.4843 35.1219C38.494 35.1124 38.5036 35.1031 38.5131 35.0938L38.1648 34.7351C38.1549 34.7447 38.1451 34.7543 38.1354 34.7637L38.4843 35.1219ZM38.4126 35.1913C38.4372 35.1678 38.4612 35.1444 38.4843 35.1219L38.1354 34.7637C38.1121 34.7865 38.0897 34.8083 38.067 34.83L38.4126 35.1913ZM37.8672 35.6948C38.0539 35.5282 38.236 35.3603 38.4127 35.1912L38.0669 34.83C37.8948 34.9948 37.7171 35.1587 37.5344 35.3216L37.8672 35.6948ZM37.7588 35.7904C37.7939 35.7595 37.8308 35.7271 37.8671 35.6948L37.5344 35.3215C37.4996 35.3525 37.4649 35.3829 37.4284 35.4151L37.7588 35.7904ZM37.1724 36.2923C37.372 36.1268 37.5672 35.9591 37.7588 35.7904L37.4284 35.4151C37.2399 35.5811 37.0484 35.7455 36.8532 35.9074L37.1724 36.2923ZM37.1019 36.3499C37.1169 36.3375 37.1531 36.3083 37.1724 36.2923L36.8532 35.9074C36.8262 35.9298 36.8154 35.9381 36.7838 35.9641L37.1019 36.3499ZM36.5057 36.829C36.7063 36.6717 36.9053 36.5119 37.1018 36.3499L36.7839 35.9641C36.5905 36.1234 36.3947 36.2807 36.1973 36.4354L36.5057 36.829ZM36.4776 36.8512C36.4875 36.8433 36.4966 36.8361 36.5056 36.829L36.1973 36.4354C36.1866 36.4438 36.176 36.4522 36.1663 36.4599L36.4776 36.8512ZM36.4419 36.8794C36.4544 36.8697 36.4665 36.86 36.4776 36.8512L36.1663 36.4599C36.1549 36.469 36.1447 36.4771 36.1345 36.485L36.4419 36.8794ZM35.8271 37.3475C36.032 37.1946 36.2374 37.0389 36.4419 36.8794L36.1345 36.4851C35.9334 36.6419 35.7309 36.7954 35.5281 36.9468L35.8271 37.3475ZM35.7999 37.3679C35.8091 37.3611 35.8182 37.3542 35.8273 37.3474L35.5279 36.947C35.5187 36.9539 35.5095 36.9608 35.5003 36.9676L35.7999 37.3679ZM35.7059 37.4381C35.7376 37.4146 35.769 37.3911 35.7999 37.3679L35.5003 36.9676C35.4692 36.9909 35.4387 37.0137 35.4082 37.0364L35.7059 37.4381ZM35.1182 37.8653C35.3128 37.7263 35.5088 37.584 35.7058 37.4381L35.4083 37.0363C35.2137 37.1803 35.0201 37.321 34.8277 37.4584L35.1182 37.8653ZM34.982 37.9621C35.0273 37.9299 35.0723 37.898 35.1182 37.8653L34.8277 37.4583C34.7826 37.4905 34.7382 37.522 34.6931 37.554L34.982 37.9621ZM34.4162 38.3571C34.6021 38.2295 34.7914 38.0971 34.982 37.962L34.693 37.554C34.5039 37.688 34.3167 37.8189 34.1332 37.9449L34.4162 38.3571ZM34.2867 38.4453C34.328 38.4171 34.3726 38.3871 34.4162 38.3571L34.1333 37.9449C34.0896 37.9748 34.0502 38.0013 34.005 38.0322L34.2867 38.4453ZM33.8172 38.7617C33.9706 38.6595 34.1273 38.5539 34.2867 38.4453L34.005 38.0322C33.8471 38.1398 33.6919 38.2444 33.5401 38.3454L33.8172 38.7617ZM33.7763 38.7892C33.7908 38.7794 33.8043 38.7702 33.8172 38.7617L33.5401 38.3454C33.5251 38.3554 33.5098 38.3658 33.4955 38.3755L33.7763 38.7892ZM33.7268 38.8226C33.7434 38.8115 33.7606 38.7999 33.7763 38.7892L33.4955 38.3755C33.4794 38.3865 33.4646 38.3965 33.4506 38.4057L33.7268 38.8226ZM39.3169 43.9887L33.7655 38.4374L33.4119 38.7909L38.9633 44.3423L39.3169 43.9887ZM39.4277 44.0057C39.42 44.0095 39.3991 44.0175 39.3775 44.0177C39.3684 44.0178 39.3603 44.0164 39.3525 44.0135C39.3451 44.0107 39.3326 44.0044 39.3161 43.988L38.9641 44.3431C39.2452 44.6217 39.5696 44.4927 39.6463 44.4554L39.4277 44.0057ZM39.482 43.9068C39.4847 43.9303 39.4819 43.9443 39.4796 43.9518C39.4771 43.9598 39.4732 43.9669 39.4676 43.974C39.4543 43.9906 39.4354 44.002 39.4271 44.006L39.6469 44.4551C39.7228 44.4179 40.0245 44.243 39.9786 43.849L39.482 43.9068ZM39.0222 39.9748L39.482 43.9069L39.9786 43.8489L39.5188 39.9167L39.0222 39.9748ZM39.1988 39.4674C39.0646 39.601 39.0006 39.7883 39.0221 39.9745L39.5188 39.917C39.5147 39.881 39.5271 39.846 39.5515 39.8217L39.1988 39.4674ZM39.7084 39.2919C39.5141 39.2668 39.3291 39.3371 39.1984 39.4678L39.5519 39.8213C39.5792 39.7941 39.6121 39.7836 39.6443 39.7878L39.7084 39.2919ZM43.6415 39.7514L39.7054 39.2915L39.6473 39.7882L43.5835 40.248L43.6415 39.7514ZM33.7848 23.0012C33.6615 22.8798 33.521 22.8377 33.3714 22.8249L33.3287 23.3231C33.4042 23.3295 33.4195 23.3432 33.4341 23.3575L33.7848 23.0012ZM35.7032 24.8924L33.785 23.0013L33.4339 23.3574L35.3522 25.2485L35.7032 24.8924ZM35.7093 25.7632C35.9478 25.5212 35.9457 25.1313 35.7031 24.8923L35.3522 25.2485C35.3976 25.2932 35.3984 25.3664 35.3531 25.4123L35.7093 25.7632ZM28.9075 32.6665L35.7093 25.7632L35.3532 25.4123L28.5513 32.3156L28.9075 32.6665ZM28.4689 32.85C28.633 32.85 28.7913 32.7845 28.9075 32.6665L28.5513 32.3157C28.5296 32.3377 28.4999 32.35 28.4689 32.35V32.85ZM28.4403 32.8492C28.4467 32.8496 28.4571 32.85 28.4689 32.85V32.35C28.4701 32.35 28.4698 32.3501 28.4654 32.3499L28.4403 32.8492ZM28.4357 32.849L28.44 32.8492L28.4657 32.3499L28.4614 32.3497L28.4357 32.849ZM27.985 32.6151C28.0942 32.7537 28.2578 32.8393 28.435 32.849L28.4622 32.3497C28.4293 32.3479 28.3985 32.332 28.3777 32.3056L27.985 32.6151ZM24.4777 28.1521L27.9848 32.6148L28.3779 32.3059L24.8709 27.8431L24.4777 28.1521ZM24.3503 27.6984C24.3311 27.8605 24.3768 28.0235 24.4777 28.152L24.871 27.8432C24.8518 27.8188 24.8432 27.7881 24.8468 27.7573L24.3503 27.6984ZM24.5823 27.2868C24.4529 27.3877 24.3702 27.5359 24.3504 27.6975L24.8467 27.7582C24.8505 27.7269 24.8664 27.6993 24.8899 27.6809L24.5823 27.2868ZM26.7004 25.6237L24.5817 27.2872L24.8905 27.6805L27.0092 26.017L26.7004 25.6237ZM27.5649 25.7276C27.3559 25.4608 26.9677 25.4118 26.6995 25.6245L27.0101 26.0163C27.0591 25.9774 27.1318 25.9855 27.1714 26.036L27.5649 25.7276ZM28.9249 27.4584L27.5648 25.7274L27.1716 26.0363L28.5318 27.7673L28.9249 27.4584ZM32.914 23.0075L28.5502 27.4374L28.9064 27.7883L33.2702 23.3584L32.914 23.0075ZM33.3482 22.824C33.1849 22.8252 33.0285 22.8912 32.914 23.0076L33.2703 23.3583C33.2915 23.3368 33.3209 23.3242 33.3519 23.324L33.3482 22.824ZM28.6966 31.527L25.6722 27.6788L25.2791 27.9877L28.3035 31.836L28.6966 31.527ZM34.5754 25.1594L28.322 31.506L28.6781 31.8569L34.9315 25.5103L34.5754 25.1594ZM33.181 24.1352L34.5779 25.5128L34.929 25.1568L33.532 23.7792L33.181 24.1352ZM29.1358 28.5979L33.5346 24.1326L33.1784 23.7817L28.7796 28.247L29.1358 28.5979ZM28.664 28.7803C28.8373 28.7893 29.0112 28.7248 29.1362 28.5975L28.7792 28.2473C28.7577 28.2693 28.7244 28.2828 28.6898 28.281L28.664 28.7803ZM28.2133 28.5464C28.3225 28.6851 28.4861 28.7707 28.6633 28.7803L28.6905 28.281C28.6575 28.2792 28.6268 28.2634 28.606 28.237L28.2133 28.5464ZM26.8222 26.7762L28.2131 28.5462L28.6062 28.2372L27.2153 26.4673L26.8222 26.7762ZM25.6301 28.0299L27.1731 26.8184L26.8644 26.4251L25.3213 27.6366L25.6301 28.0299Z" fill="white"/>
</svg>
