<svg width="20" height="20" viewBox="0 0 20 20" fill="none" xmlns="http://www.w3.org/2000/svg">
<path d="M8.21707 5.31366C8.20594 4.44011 7.01751 3.06842 6.31707 2.39561C5.77152 1.8715 4.74066 1 3.91898 1C3.90863 1 3.89809 1.0002 3.88773 1.00049C3.04591 1.02344 1.58822 2.23217 1.24433 3.19252C0.106296 6.36998 3.15018 10.945 6.10228 13.8973C8.62049 16.4155 12.3187 19.0001 15.324 19C15.8289 19.0047 16.3309 18.922 16.8076 18.7556C17.7678 18.4116 18.9765 16.9541 18.9995 16.1123C19.0222 15.2854 18.1347 14.2349 17.6037 13.6823C16.931 12.982 15.5595 11.7941 14.6862 11.7829H14.6733C13.9032 11.7829 13.0535 12.6607 12.4535 13.4363C11.0895 12.3345 7.66602 8.91086 6.5637 7.5465C7.34364 6.94302 8.22684 6.08743 8.21707 5.31366ZM5.99354 6.97572C5.92012 7.03118 5.8585 7.10072 5.81229 7.18028C5.76609 7.25984 5.73621 7.34783 5.72443 7.43908C5.71264 7.53033 5.71918 7.62301 5.74366 7.7117C5.76814 7.8004 5.81006 7.88331 5.86698 7.9556C6.95934 9.34632 10.6541 13.0413 12.0444 14.1329C12.1167 14.1899 12.1995 14.2318 12.2882 14.2563C12.3769 14.2808 12.4695 14.2874 12.5608 14.2756C12.652 14.2638 12.7399 14.234 12.8195 14.1878C12.8991 14.1417 12.9686 14.0801 13.0241 14.0067C13.7702 13.022 14.3886 12.5827 14.6725 12.5827C15.0486 12.5874 16.0822 13.253 17.0269 14.2363C17.9053 15.1505 18.2077 15.8064 18.2001 16.0904C18.188 16.53 17.2695 17.7406 16.538 18.0026C13.8917 18.9495 9.67498 16.3389 6.668 13.3317C3.66082 10.3245 1.05023 6.10647 1.9973 3.46218C2.25936 2.73051 3.47005 1.81194 3.9096 1.79993L3.92035 1.79983C4.20992 1.79983 4.86075 2.10553 5.76312 2.97245C6.74669 3.91727 7.41256 4.95114 7.41724 5.32382C7.42095 5.60637 6.98198 6.22676 5.99354 6.97572Z" fill="#111111" stroke="black" stroke-width="0.2"/>
<path d="M10.1052 1.79983C12.2516 1.80253 14.3093 2.65654 15.8269 4.17449C17.3445 5.69244 18.198 7.75037 18.2001 9.89682C18.1999 9.94948 18.2101 10.0017 18.2301 10.0504C18.2501 10.0991 18.2795 10.1434 18.3166 10.1807C18.3538 10.2181 18.398 10.2477 18.4466 10.2679C18.4952 10.2881 18.5474 10.2985 18.6 10.2985C18.6527 10.2985 18.7049 10.2881 18.7535 10.2679C18.8021 10.2477 18.8463 10.2181 18.8834 10.1807C18.9206 10.1434 18.95 10.0991 18.97 10.0504C18.99 10.0017 19.0002 9.94948 18.9999 9.89682C18.9975 7.53832 18.0597 5.27708 16.3922 3.60918C14.7247 1.94128 12.4637 1.00293 10.1052 1C10.0526 0.999883 10.0005 1.01014 9.95186 1.03019C9.90323 1.05023 9.85904 1.07967 9.82181 1.11682C9.78458 1.15396 9.75504 1.19809 9.73489 1.24667C9.71473 1.29525 9.70436 1.34732 9.70436 1.39992C9.70436 1.45251 9.71473 1.50459 9.73489 1.55316C9.75504 1.60174 9.78458 1.64587 9.82181 1.68302C9.85904 1.72016 9.90323 1.7496 9.95186 1.76965C10.0005 1.78969 10.0526 1.79995 10.1052 1.79983Z" fill="#111111"/>
<path d="M10.1052 4.21098C11.6124 4.21296 13.0573 4.81272 14.1228 5.87866C15.1884 6.94461 15.7877 8.3897 15.7891 9.89691C15.7891 10.003 15.8313 10.1047 15.9063 10.1797C15.9813 10.2547 16.083 10.2968 16.1891 10.2968C16.2951 10.2968 16.3968 10.2547 16.4718 10.1797C16.5468 10.1047 16.589 10.003 16.589 9.89691C16.5873 8.17763 15.9037 6.52922 14.6882 5.31332C13.4727 4.09742 11.8245 3.41333 10.1052 3.41113C10.0526 3.41102 10.0005 3.42127 9.95186 3.44132C9.90324 3.46136 9.85904 3.4908 9.82181 3.52795C9.78458 3.5651 9.75504 3.60923 9.73489 3.6578C9.71474 3.70638 9.70436 3.75846 9.70436 3.81105C9.70436 3.86365 9.71474 3.91573 9.73489 3.9643C9.75504 4.01288 9.78458 4.05701 9.82181 4.09416C9.85904 4.13131 9.90324 4.16074 9.95186 4.18079C10.0005 4.20084 10.0526 4.21109 10.1052 4.21097V4.21098Z" fill="#111111"/>
</svg>
