<svg width="27" height="28" viewBox="0 0 27 28" fill="none" xmlns="http://www.w3.org/2000/svg">
<path fill-rule="evenodd" clip-rule="evenodd" d="M5.54713 7.08441L9.20519 18.1174H24.7115C25.1852 18.1174 25.569 18.5231 25.569 19.0234C25.569 19.5236 25.1852 19.9292 24.7115 19.9292H8.59696C8.2327 19.9292 7.90818 19.6861 7.78779 19.3229L1.98193 1.81176H0.857323C0.383876 1.81176 0 1.40627 0 0.905798C0 0.405581 0.383876 0 0.857323 0H2.59011C2.95437 0 3.27893 0.243222 3.39929 0.606468L4.94704 5.27468H25.809C26.3517 5.27468 26.7579 5.80073 26.6489 6.36255L25.2801 13.4146C25.2053 13.7994 24.9045 14.0893 24.535 14.1328L11.8687 15.6235C11.398 15.6789 10.9739 15.3208 10.9215 14.8234C10.8692 14.3263 11.2082 13.8783 11.6788 13.823L23.737 12.3609C23.737 12.3609 24.3464 9.37997 24.7916 7.08641C24.8014 7.03589 9.20687 7.07463 5.54713 7.08441ZM10.5396 21.9125C8.94855 21.9125 7.65878 23.2753 7.65878 24.9563C7.65878 26.6374 8.94855 28 10.5396 28C12.1306 28 13.4205 26.6374 13.4205 24.9563C13.4205 23.2753 12.1306 21.9125 10.5396 21.9125ZM19.6622 24.9563C19.6622 23.2753 20.9519 21.9125 22.543 21.9125C24.134 21.9125 25.4238 23.2753 25.4237 24.9563C25.4237 26.6374 24.134 28 22.543 28C20.9519 28 19.6622 26.6374 19.6622 24.9563Z" fill="white"/>
</svg>
