<svg width="26" height="26" viewBox="0 0 26 26" fill="none" xmlns="http://www.w3.org/2000/svg">
<path d="M25.9411 12.6408C25.9289 12.6183 25.9202 12.5941 25.9042 12.5738L23.3304 9.34684C23.2466 9.24243 23.1202 9.18141 22.9862 9.18141H19.1355L19.1349 7.70844C19.1345 6.76657 18.3675 6 17.4251 6H5.70973C4.76699 6 4 6.76699 4 7.70931V15.8643C4 16.8071 4.76699 17.5741 5.70973 17.5741H6.09879C6.14351 18.708 7.07318 19.6185 8.21824 19.6185C9.36288 19.6185 10.2925 18.708 10.3372 17.5741H17.4286C17.9009 17.5741 18.3288 17.3815 18.6386 17.0708C18.9109 17.3771 19.3034 17.5741 19.7446 17.5741H20.0082C20.0529 18.708 20.9826 19.6185 22.1272 19.6185C23.2701 19.6185 24.198 18.7114 24.246 17.5805H24.4574C25.3082 17.5805 26 16.8883 26 16.0375V12.8484C26 12.7934 25.9877 12.7404 25.9681 12.6899C25.9611 12.672 25.9502 12.6575 25.9411 12.6408ZM24.6463 12.4084H21.2782V10.0614H22.7744L24.6463 12.4084ZM8.21824 18.7385C7.53031 18.7385 6.97042 18.1791 6.97042 17.4911C6.97042 16.8032 7.53031 16.2433 8.21824 16.2433C8.90618 16.2433 9.46561 16.8032 9.46561 17.4911C9.46561 18.1791 8.90618 18.7385 8.21824 18.7385ZM17.4286 16.6941H10.1877C9.87139 15.9151 9.10921 15.3633 8.21824 15.3633C7.32695 15.3633 6.56471 15.9151 6.24841 16.6941H5.70973C5.25209 16.6941 4.88001 16.322 4.88001 15.8643V7.70931C4.88001 7.25212 5.25209 6.88001 5.70973 6.88001H17.4251C17.8823 6.88001 18.2545 7.25212 18.2549 7.70886L18.2583 15.8639C18.2583 16.3215 17.8862 16.6941 17.4286 16.6941ZM22.1272 18.7385C21.4393 18.7385 20.8799 18.1791 20.8799 17.4911C20.8799 16.8032 21.4393 16.2433 22.1272 16.2433C22.8152 16.2433 23.375 16.8032 23.375 17.4911C23.375 18.1791 22.8152 18.7385 22.1272 18.7385ZM24.4574 16.7005H24.0991C23.7843 15.9183 23.0209 15.3633 22.1272 15.3633C21.2362 15.3633 20.4741 15.9151 20.1578 16.6941H19.7446C19.4107 16.6941 19.1388 16.4221 19.1388 16.0882V10.0614H20.3982V12.8484C20.3982 13.0916 20.595 13.2884 20.8382 13.2884H25.12V16.0375C25.12 16.4032 24.8227 16.7005 24.4574 16.7005Z" fill="#111111"/>
</svg>
