<svg width="60" height="60" viewBox="0 0 60 60" fill="none" xmlns="http://www.w3.org/2000/svg">
<path fill-rule="evenodd" clip-rule="evenodd" d="M11.34 17.6002C10.9768 17.6002 10.76 17.8934 10.76 18.1802C10.76 18.3327 10.8353 18.4769 10.9393 18.5809C11.0433 18.685 11.1875 18.7602 11.34 18.7602H14.2571H38.82C39.6048 18.7602 40.28 19.4354 40.28 20.2202V23.0762V31.2602C40.28 31.6235 40.5732 31.8402 40.86 31.8402C41.0125 31.8402 41.1567 31.765 41.2607 31.6609C41.3648 31.5569 41.44 31.4127 41.44 31.2602V23.5602H43.1982H45.18C45.8337 23.5602 46.4653 23.7879 46.9744 24.1865C47.2778 24.4241 47.5377 24.7223 47.7329 25.0692L47.7333 25.07L49.3532 27.8901L49.3556 27.8939C49.7808 28.5621 50.3319 29.1769 51.0118 29.5478C51.8188 29.9962 52.2791 30.3084 52.5364 30.5069C52.665 30.6061 52.7423 30.6764 52.7865 30.7206C52.8011 30.7352 52.8121 30.747 52.82 30.7558V36.6002C52.82 36.9266 52.6563 37.2463 52.3948 37.4866C52.1337 37.7266 51.7822 37.8802 51.42 37.8802H48.6833C48.3426 36.1351 46.8216 34.8202 45 34.8202C43.1785 34.8202 41.6574 36.1351 41.3167 37.8802H29.3033C28.9626 36.1351 27.4416 34.8202 25.62 34.8202C23.7985 34.8202 22.2774 36.1351 21.9367 37.8802H19.02C18.2979 37.8802 17.68 37.2677 17.68 36.4802V33.1802C17.68 32.817 17.3869 32.6002 17.1 32.6002C16.9475 32.6002 16.8033 32.6755 16.6993 32.7795C16.5953 32.8835 16.52 33.0277 16.52 33.1802V36.4802C16.52 37.9106 17.6401 39.1002 19.02 39.1002H21.8707C22.0978 40.9088 23.6795 42.3402 25.56 42.3402C27.4405 42.3402 29.0222 40.9088 29.2494 39.1002H41.3107C41.5378 40.9088 43.1195 42.3402 45 42.3402C46.8805 42.3402 48.4622 40.9088 48.6894 39.1002H51.48C52.9104 39.1002 54.1 37.9801 54.1 36.6002V30.7802C54.1 30.5097 54.0114 30.2302 53.6582 29.877C53.3104 29.5292 52.7007 29.1041 51.6504 28.5338C51.1802 28.2395 50.716 27.8311 50.4274 27.3117L48.8067 24.4904C48.0703 23.2018 46.6586 22.3402 45.24 22.3402H41.5V20.2802C41.5 18.785 40.3152 17.6002 38.82 17.6002H11.34ZM23.08 38.5802C23.08 37.1955 24.2352 36.0402 25.62 36.0402C27.0047 36.0402 28.1012 37.136 28.16 38.4626V38.5802C28.16 39.9665 27.0633 41.1202 25.62 41.1202C24.2352 41.1202 23.08 39.965 23.08 38.5802ZM42.46 38.5802C42.46 37.1955 43.6152 36.0402 45 36.0402C46.3847 36.0402 47.4812 37.136 47.54 38.4626L47.5399 38.5802L47.5401 38.5844C47.5976 39.9636 46.4472 41.1202 45 41.1202C43.6152 41.1202 42.46 39.965 42.46 38.5802ZM16.2001 30.7399C15.8369 30.7399 15.6201 31.033 15.6201 31.3199C15.6201 31.4724 15.6954 31.6165 15.7994 31.7206C15.9034 31.8246 16.0476 31.8999 16.2001 31.8999H22.8001C23.1634 31.8999 23.3801 31.6067 23.3801 31.3199C23.3801 31.1673 23.3049 31.0232 23.2008 30.9192C23.0968 30.8151 22.9526 30.7399 22.8001 30.7399H16.2001ZM45.0001 37.6998C44.5249 37.6998 44.1201 38.1046 44.1201 38.5798C44.1201 39.0551 44.5249 39.4598 45.0001 39.4598C45.4753 39.4598 45.8801 39.0551 45.8801 38.5798C45.8801 38.1046 45.4754 37.6998 45.0001 37.6998ZM25.62 37.6998C25.1448 37.6998 24.74 38.1046 24.74 38.5798C24.74 39.0551 25.1448 39.4598 25.62 39.4598C26.0952 39.4598 26.5 39.0551 26.5 38.5798C26.5 38.1046 26.0952 37.6998 25.62 37.6998ZM42.96 24.38C42.5968 24.38 42.38 24.6731 42.38 24.96V27.24C42.38 27.6032 42.6731 27.82 42.96 27.82C43.1027 27.82 43.2594 27.7673 43.3818 27.6711C43.5057 27.5737 43.6 27.4267 43.6 27.24V25.54H45.24C45.5569 25.54 45.8849 25.7537 46.0504 26.0848L47.6732 28.9096C47.917 29.3364 48.1611 29.6414 48.4007 29.941L48.4008 29.941L48.4054 29.9468L48.4093 29.9507C48.5402 30.0816 48.6841 30.16 48.84 30.16C48.9839 30.16 49.1223 30.0907 49.2347 30.0345L49.2447 30.0295L49.2592 30.0222L49.2707 30.0107C49.3758 29.9057 49.4482 29.7633 49.4573 29.6084C49.4665 29.4529 49.4113 29.2925 49.2758 29.1545C49.2232 29.0845 49.1678 29.017 49.1116 28.9483C48.9659 28.7704 48.8148 28.5856 48.6896 28.3352L47.0673 25.5111C46.6896 24.8197 45.9364 24.38 45.18 24.38H42.96ZM9.42009 27.5001C9.13323 27.5001 8.84009 27.7169 8.84009 28.0801C8.84009 28.4434 9.13323 28.6601 9.42009 28.6601H20.5801C20.9433 28.6601 21.1601 28.367 21.1601 28.0801C21.1601 27.7933 20.9433 27.5001 20.5801 27.5001H9.42009ZM13.2599 24.2599C12.8967 24.2599 12.6799 24.553 12.6799 24.8399C12.6799 24.9924 12.7552 25.1366 12.8592 25.2406C12.9633 25.3446 13.1074 25.4199 13.2599 25.4199H19.9199C20.2832 25.4199 20.4999 25.1268 20.4999 24.8399C20.4999 24.6874 20.4247 24.5432 20.3206 24.4392C20.2166 24.3351 20.0725 24.2599 19.9199 24.2599H13.2599ZM6.48002 20.9601C6.11678 20.9601 5.90002 21.2532 5.90002 21.5401C5.90002 21.6926 5.97528 21.8368 6.07931 21.9408C6.18335 22.0448 6.3275 22.1201 6.48002 22.1201H20.58C20.9433 22.1201 21.16 21.8269 21.16 21.5401C21.16 21.3876 21.0848 21.2434 20.9807 21.1394C20.8767 21.0353 20.7326 20.9601 20.58 20.9601H6.48002ZM28.5601 19.2799C25.5656 19.2799 23.0601 21.724 23.0601 24.7799C23.0601 27.8351 25.5048 30.2799 28.5601 30.2799C31.5546 30.2799 34.0601 27.8359 34.0601 24.7799C34.0601 21.7854 31.616 19.2799 28.5601 19.2799ZM24.28 24.7774C24.2215 22.436 26.1539 20.4999 28.5601 20.4999C30.9048 20.4999 32.8401 22.4351 32.8401 24.7799C32.8401 27.1247 30.9048 29.0599 28.5601 29.0599C26.2153 29.0599 24.2801 27.1247 24.2801 24.7799L24.28 24.7774ZM28.56 20.9601C28.4075 20.9601 28.2633 21.0353 28.1593 21.1394C28.0552 21.2434 27.98 21.3876 27.98 21.5401V24.7836C27.98 24.8331 27.9799 24.9047 28.026 24.9773C28.0098 25.0337 28.0106 25.0899 28.0355 25.1398C28.0612 25.1911 28.1056 25.2218 28.1524 25.234L29.5093 26.5908C29.6586 26.7401 29.8148 26.7401 29.9357 26.7401L29.94 26.7401C30.0839 26.7401 30.2223 26.6708 30.3347 26.6145L30.3447 26.6095L30.3592 26.6023L30.3707 26.5908C30.5944 26.3671 30.582 26.0095 30.38 25.7401L30.375 25.7334L29.14 24.5572V21.5401C29.14 21.1768 28.8468 20.9601 28.56 20.9601Z" fill="white"/>
</svg>
