<svg width="23" height="26" viewBox="0 0 23 26" fill="none" xmlns="http://www.w3.org/2000/svg">
<path fill-rule="evenodd" clip-rule="evenodd" d="M19.7148 1.23818C20.7628 1.23818 21.6114 2.06806 21.6114 3.09183V20.95L17.866 24.7624H3.28387C2.23837 24.7624 1.38855 23.9283 1.38855 22.9051V1.23818H19.7148ZM0.125 0V0.619091V22.9045C0.125 24.6114 1.54015 26 3.28387 26H18.1348H18.4036L18.5902 25.8104L22.698 21.6295L22.8749 21.4495V21.2001V3.09183C22.8749 1.38374 21.4598 0 19.7148 0H0.756775H0.125Z" fill="#166CC8"/>
<path fill-rule="evenodd" clip-rule="evenodd" d="M17.1913 17.9524C16.1422 17.9524 15.293 18.7793 15.293 19.8079V23.523C15.293 23.8649 15.5762 24.1421 15.9247 24.1421C16.2738 24.1421 16.5571 23.8649 16.5571 23.523V19.8079C16.5571 19.4648 16.8386 19.1906 17.1913 19.1906H20.0331C20.3816 19.1906 20.6649 18.9133 20.6649 18.5721C20.6649 18.2302 20.3816 17.953 20.0331 17.953H17.1913V17.9524Z" fill="#166CC8"/>
<path fill-rule="evenodd" clip-rule="evenodd" d="M18.1808 5.57192C18.5299 5.57192 18.8131 5.29469 18.8131 4.95283C18.8131 4.61097 18.5299 4.33374 18.1808 4.33374H5.17925C4.83015 4.33374 4.54688 4.61097 4.54688 4.95283C4.54688 5.29469 4.83015 5.57192 5.17925 5.57192H18.1808Z" fill="#166CC8"/>
<path fill-rule="evenodd" clip-rule="evenodd" d="M18.1808 9.28567C18.5299 9.28567 18.8131 9.00905 18.8131 8.66719C18.8131 8.32533 18.5299 8.0481 18.1808 8.0481H5.17925C4.83015 8.0481 4.54688 8.32472 4.54688 8.66719C4.54688 9.00965 4.83015 9.28567 5.17925 9.28567H18.1808Z" fill="#166CC8"/>
<path fill-rule="evenodd" clip-rule="evenodd" d="M18.1808 13.6194C18.5299 13.6194 18.8131 13.3422 18.8131 13.0003C18.8131 12.6591 18.5299 12.3818 18.1808 12.3818H5.17925C4.83015 12.3818 4.54688 12.6591 4.54688 13.0003C4.54688 13.3422 4.83015 13.6194 5.17925 13.6194H18.1808Z" fill="#166CC8"/>
</svg>
