<svg width="380" height="308" viewBox="0 0 380 308" fill="none" xmlns="http://www.w3.org/2000/svg">
<path d="M210 14.8003H170C168.4 14.8003 167.2 16.0003 167.2 17.6003C167.2 19.2003 168.4 20.4004 170 20.4004H210C211.6 20.4004 212.8 19.2003 212.8 17.6003C212.8 16.0003 211.6 14.8003 210 14.8003Z" fill="#D40D0D"/>
<path d="M190 256C194.418 256 198 252.418 198 248C198 243.582 194.418 240 190 240C185.582 240 182 243.582 182 248C182 252.418 185.582 256 190 256Z" fill="#D40D0D"/>
<path d="M370 0H10C4.4 0 0 4.4 0 10V260.8C0 266.4 4.4 270.8 10 270.8H160.4L153.6 301.6H141.2C139.6 301.6 138.4 302.8 138.4 304.4C138.4 306 139.6 307.2 141.2 307.2H238.4C240 307.2 241.2 306 241.2 304.4C241.2 302.8 240 301.6 238.4 301.6H226L219.2 270.8H369.6C375.2 270.8 379.6 266.4 379.6 260.8V10C380 4.4 375.6 0 370 0ZM220.8 302H159.6L166.4 271.2H214.4L220.8 302ZM374.8 260.8C374.8 263.6 372.8 265.6 370 265.6H10C7.2 265.6 5.19995 263.6 5.19995 260.8V230.4H374.4V260.8H374.8Z" fill="#D40D0D"/>
<g filter="url(#filter0_i)">
<path d="M75 179.1L90.5 148.6L112 139.1L122 123.1L163 112.6L190 81.1001L151.5 65.1001L146.5 53.6001L132 48.1626L118.5 32.6001L127.5 40.6001L146.5 50.6001L154 62.6001L199 74.6001L194.5 65.1001L205.5 74.6001L243.5 59.6001H275L285.5 53.6001L276.5 62.6001H246.5L216 76.6001L227.5 89.6001L215 81.6001L223.5 101.6L258 126.6L261 156.1L275 163.1L285.5 185.1L273.5 165.6L258 161.6L255 128.1L223.5 109.1V139.1L199 146.6L177.5 205.1L196 144.1L219 134.6L220.5 109.1L205.5 81.6001L196 104.6L199 83.1001L165.5 117.6L123.5 126.6L115.5 140.6L92 152.1L75 179.1Z" fill="white"/>
</g>
<defs>
<filter id="filter0_i" x="75" y="32.6001" width="210.5" height="176.5" filterUnits="userSpaceOnUse" color-interpolation-filters="sRGB">
<feFlood flood-opacity="0" result="BackgroundImageFix"/>
<feBlend mode="normal" in="SourceGraphic" in2="BackgroundImageFix" result="shape"/>
<feColorMatrix in="SourceAlpha" type="matrix" values="0 0 0 0 0 0 0 0 0 0 0 0 0 0 0 0 0 0 127 0" result="hardAlpha"/>
<feOffset dy="4"/>
<feGaussianBlur stdDeviation="2"/>
<feComposite in2="hardAlpha" operator="arithmetic" k2="-1" k3="1"/>
<feColorMatrix type="matrix" values="0 0 0 0 0.2375 0 0 0 0 0.2375 0 0 0 0 0.2375 0 0 0 0.2 0"/>
<feBlend mode="normal" in2="shape" result="effect1_innerShadow"/>
</filter>
</defs>
</svg>
