<svg width="32" height="32" viewBox="0 0 32 32" fill="none" xmlns="http://www.w3.org/2000/svg">
<path d="M26.8799 6.1467C25.4643 4.73071 23.5876 3.8698 21.5909 3.72054C19.5942 3.57128 17.6103 4.14359 15.9999 5.33337C14.3035 4.07155 12.1919 3.49938 10.0905 3.73209C7.98906 3.96479 6.05385 4.98507 4.67456 6.58748C3.29527 8.18989 2.57436 10.2554 2.657 12.3681C2.73964 14.4807 3.61969 16.4836 5.11993 17.9734L15.0533 27.9067C15.1772 28.0317 15.3247 28.1309 15.4872 28.1986C15.6496 28.2662 15.8239 28.3011 15.9999 28.3011C16.1759 28.3011 16.3502 28.2662 16.5127 28.1986C16.6752 28.1309 16.8226 28.0317 16.9466 27.9067L26.8799 17.9734C27.6568 17.197 28.2731 16.2752 28.6936 15.2605C29.114 14.2459 29.3304 13.1583 29.3304 12.06C29.3304 10.9617 29.114 9.87418 28.6936 8.85955C28.2731 7.84491 27.6568 6.92307 26.8799 6.1467V6.1467ZM24.9999 16.0934L15.9999 25.08L6.99993 16.0934C6.20683 15.297 5.66656 14.2841 5.4469 13.1818C5.22724 12.0795 5.33797 10.9369 5.7652 9.89736C6.19243 8.85777 6.91713 7.96749 7.84839 7.3382C8.77966 6.70891 9.87601 6.36862 10.9999 6.36004C12.5014 6.36371 13.9401 6.96315 14.9999 8.0267C15.1239 8.15167 15.2713 8.25087 15.4338 8.31856C15.5963 8.38625 15.7706 8.4211 15.9466 8.4211C16.1226 8.4211 16.2969 8.38625 16.4594 8.31856C16.6218 8.25087 16.7693 8.15167 16.8933 8.0267C17.9844 7.08121 19.3939 6.58556 20.8367 6.64007C22.2794 6.69458 23.6475 7.29517 24.6642 8.32029C25.6808 9.34541 26.27 10.7185 26.3126 12.1616C26.3551 13.6048 25.8478 15.0102 24.8933 16.0934H24.9999Z" fill="white"/>
</svg>
