<svg width="16" height="16" viewBox="0 0 16 16" fill="none" xmlns="http://www.w3.org/2000/svg">
<path fill-rule="evenodd" clip-rule="evenodd" d="M7.99925 0C10.2088 0 12.2087 0.89501 13.6561 2.34242C15.1035 3.79134 16 5.79115 16 7.99925C16 10.2088 15.1035 12.2087 13.6561 13.6561C12.2087 15.1035 10.2088 16 7.99925 16C5.79115 16 3.79134 15.1035 2.34242 13.6561C0.89501 12.2087 0 10.2088 0 7.99925C0 5.79115 0.89501 3.78983 2.34242 2.34242C3.78983 0.89501 5.79115 0 7.99925 0ZM12.7731 3.22536C11.5521 2.00434 9.86322 1.24818 7.99925 1.24818C6.13527 1.24818 4.44788 2.00434 3.22536 3.22536C2.00434 4.44788 1.24818 6.13527 1.24818 7.99925C1.24818 9.86322 2.00434 11.5521 3.22536 12.7731C4.44788 13.9942 6.13527 14.7503 7.99925 14.7503C9.86322 14.7503 11.5521 13.9942 12.7731 12.7731C13.9942 11.5521 14.7503 9.86322 14.7503 7.99925C14.7503 6.13527 13.9942 4.44788 12.7731 3.22536ZM7.92982 5.07424C7.5857 5.07424 7.30648 4.79502 7.30648 4.4509C7.30648 4.10527 7.5857 3.82605 7.92982 3.82605H8.06867C8.4143 3.82605 8.69352 4.10527 8.69352 4.4509C8.69352 4.79502 8.4143 5.07424 8.06867 5.07424H7.92982ZM7.36987 6.51712C7.36987 6.173 7.64909 5.89378 7.99472 5.89378C8.33884 5.89378 8.61806 6.173 8.61806 6.51712V11.5491C8.61806 11.8932 8.33884 12.1739 7.99472 12.1739C7.64909 12.1739 7.36987 11.8932 7.36987 11.5491V6.51712Z" fill="#333333"/>
</svg>
