<svg width="12" height="13" viewBox="0 0 12 13" fill="none" xmlns="http://www.w3.org/2000/svg">
<path d="M11.0009 5.50019H3.41087L6.71087 2.21019C6.89918 2.02188 7.00496 1.76649 7.00496 1.50019C7.00496 1.23388 6.89918 0.978489 6.71087 0.790185C6.52257 0.601882 6.26717 0.496094 6.00087 0.496094C5.73457 0.496094 5.47918 0.601882 5.29087 0.790185L0.290873 5.79019C0.199832 5.88529 0.128467 5.99743 0.0808729 6.12019C-0.0191451 6.36365 -0.0191451 6.63672 0.0808729 6.88019C0.128467 7.00294 0.199832 7.11508 0.290873 7.21019L5.29087 12.2102C5.38384 12.3039 5.49444 12.3783 5.6163 12.4291C5.73816 12.4798 5.86886 12.506 6.00087 12.506C6.13288 12.506 6.26359 12.4798 6.38545 12.4291C6.50731 12.3783 6.61791 12.3039 6.71087 12.2102C6.8046 12.1172 6.879 12.0066 6.92976 11.8848C6.98053 11.7629 7.00667 11.6322 7.00667 11.5002C7.00667 11.3682 6.98053 11.2375 6.92976 11.1156C6.879 10.9937 6.8046 10.8831 6.71087 10.7902L3.41087 7.50019H11.0009C11.2661 7.50019 11.5204 7.39483 11.708 7.20729C11.8955 7.01976 12.0009 6.7654 12.0009 6.50019C12.0009 6.23497 11.8955 5.98062 11.708 5.79308C11.5204 5.60554 11.2661 5.50019 11.0009 5.50019Z" fill="#566468"/>
</svg>
