<svg width="10" height="18" viewBox="0 0 10 18" fill="none" xmlns="http://www.w3.org/2000/svg">
    <path d="M0.31212 8.89567C0.337677 8.66831 0.438124 8.45376 0.599813 8.28117L7.80414 0.489939C8.06257 0.135421 8.51734 -0.0504127 8.974 0.0118968C9.43065 0.0742063 9.80836 0.373629 9.94563 0.782139C10.0829 1.19065 9.95542 1.63594 9.61771 1.92761L3.0763 9L9.61771 16.0724C9.95542 16.3641 10.0829 16.8094 9.94563 17.2179C9.80836 17.6264 9.43065 17.9258 8.974 17.9881C8.51734 18.0504 8.06257 17.8646 7.80414 17.5101L0.599813 9.71883C0.388085 9.49164 0.28434 9.1948 0.31212 8.89567Z" fill="#166CC8" />
</svg>