<svg width="26" height="26" viewBox="0 0 26 26" fill="none" xmlns="http://www.w3.org/2000/svg">
<path fill-rule="evenodd" clip-rule="evenodd" d="M23.4 13.4H22.4V21C22.4 21.1061 22.3579 21.2078 22.2828 21.2828C22.2078 21.3578 22.1061 21.4 22 21.4H6.00001C5.89392 21.4 5.79218 21.3578 5.71716 21.2828C5.64215 21.2078 5.60001 21.1061 5.60001 21V13.4H4.60001V12.0594L5.49189 7.59998H22.5081L23.4 12.0594V13.4ZM21.6 13.4H6.40001V20.6H21.6V13.4ZM6.14812 8.39998L5.30812 12.6H22.6919L21.8519 8.39998H6.14812ZM8.60001 15.6H15.4V17.4H8.60001V15.6ZM5.60001 4.59998H22.4V5.39998H5.60001V4.59998Z" fill="#111111"/>
</svg>
