<svg width="15" height="14" viewBox="0 0 15 14" fill="none" xmlns="http://www.w3.org/2000/svg">
<path d="M13.7347 5.80632L12.7032 5.67368C12.5411 5.64421 12.4084 5.52632 12.3642 5.37895C12.2463 5.02526 12.1137 4.67158 11.9368 4.34737C11.8484 4.2 11.8632 4.02316 11.9663 3.89053L12.6 3.08C12.6884 2.96211 12.6884 2.78526 12.5705 2.68211L11.3179 1.41474C11.2 1.31158 11.0379 1.29684 10.92 1.38526L10.1095 2.01895C9.97684 2.12211 9.8 2.13684 9.65263 2.06316C9.32842 1.88632 8.97474 1.73895 8.62105 1.63579C8.45895 1.57684 8.34105 1.45895 8.32632 1.29684L8.19368 0.265263C8.16421 0.117895 8.04632 0 7.89895 0H6.10105C5.95368 0 5.82105 0.117895 5.80632 0.265263L5.67368 1.29684C5.64421 1.45895 5.54105 1.59158 5.37895 1.63579C5.01053 1.73895 4.67158 1.88632 4.33263 2.06316C4.18526 2.15158 4.00842 2.13684 3.89053 2.03368L3.06526 1.4C2.94737 1.31158 2.78526 1.31158 2.66737 1.42947L1.41474 2.69684C1.29684 2.8 1.29684 2.97684 1.38526 3.09474L2.01895 3.90526C2.13684 4.02316 2.13684 4.2 2.06316 4.34737C1.88632 4.67158 1.75368 5.02526 1.63579 5.37895C1.59158 5.54105 1.45895 5.65895 1.29684 5.67368L0.265263 5.80632C0.117895 5.83579 0 5.95368 0 6.10105V7.88421C0 8.04632 0.117895 8.16421 0.265263 8.17895L1.29684 8.31158C1.45895 8.34105 1.59158 8.45895 1.63579 8.60632C1.75368 8.97474 1.88632 9.31368 2.06316 9.65263C2.15158 9.8 2.13684 9.97684 2.03368 10.0947L1.4 10.9053C1.31158 11.0232 1.31158 11.2 1.42947 11.3032L2.68211 12.5705C2.8 12.6737 2.96211 12.6884 3.08 12.6L3.90526 11.9663C4.03789 11.8632 4.2 11.8632 4.34737 11.9368C4.67158 12.1137 5.02526 12.2611 5.39368 12.3642C5.55579 12.4084 5.65895 12.5411 5.68842 12.7032L5.82105 13.7347C5.83579 13.8821 5.96842 14 6.11579 14H7.89895C8.04632 14 8.17895 13.8821 8.19368 13.7347L8.32632 12.7032C8.35579 12.5411 8.45895 12.4084 8.62105 12.3642C8.69474 12.3347 8.75368 12.32 8.81263 12.2905L7.25053 10.6547C7.16211 10.6695 7.08842 10.6695 7 10.6695C4.96632 10.6695 3.33053 9.03368 3.33053 7C3.33053 4.98105 4.96632 3.34526 7 3.34526C9.01895 3.34526 10.6547 4.98105 10.6547 7C10.6547 7.08842 10.6547 7.17684 10.64 7.25053L12.3053 8.79789C12.3347 8.73895 12.3495 8.68 12.3789 8.60632C12.4232 8.44421 12.5558 8.32632 12.7179 8.31158L13.7495 8.17895C13.8968 8.16421 14.0147 8.03158 14.0147 7.88421V6.10105C14 5.95368 13.8821 5.83579 13.7347 5.80632Z" fill="#EBE7FF"/>
<path d="M9.22531 7.76595C9.44636 7.10279 9.37268 6.35121 8.98952 5.747C8.42952 4.89227 7.48636 4.53858 6.60215 4.68595C6.3811 4.71542 6.30742 4.99542 6.45478 5.15753L7.01478 5.71753C7.38321 6.08595 7.38321 6.66069 7.01478 7.02911C6.64636 7.39753 6.05689 7.39753 5.70321 7.02911L5.14321 6.46911C4.99584 6.32174 4.71584 6.39542 4.67163 6.61648C4.55373 7.33858 4.76005 8.11963 5.32005 8.67963C5.96847 9.32806 6.91163 9.51963 7.73689 9.23963L10.7137 12.4081C11.1706 12.8944 11.9369 12.9091 12.3937 12.4375C12.8653 11.9659 12.8506 11.1996 12.3643 10.7575L9.22531 7.76595Z" fill="#EBE7FF"/>
</svg>
