<svg width="106" height="26" viewBox="0 0 106 26" fill="none" xmlns="http://www.w3.org/2000/svg">
<path d="M20.5902 11.2106L19.0438 11.0117C18.8007 10.9675 18.6019 10.7908 18.5356 10.5699C18.3589 10.0397 18.1601 9.50944 17.895 9.0234C17.7624 8.80248 17.7845 8.53737 17.9391 8.33853L18.8891 7.12344C19.0217 6.9467 19.0217 6.68159 18.8449 6.52695L16.9671 4.62699C16.7903 4.47234 16.5473 4.45025 16.3706 4.5828L15.1555 5.53278C14.9566 5.68743 14.6915 5.70952 14.4706 5.59906C13.9846 5.33395 13.4544 5.11302 12.9241 4.95838C12.6811 4.87 12.5044 4.69326 12.4823 4.45025L12.2834 2.90377C12.2393 2.68284 12.0625 2.5061 11.8416 2.5061H9.14631C8.92538 2.5061 8.72655 2.68284 8.70446 2.90377L8.50563 4.45025C8.46144 4.69326 8.30679 4.8921 8.06378 4.95838C7.51146 5.11302 7.00333 5.33395 6.4952 5.59906C6.27428 5.73161 6.00917 5.70952 5.83243 5.55487L4.59525 4.60489C4.41851 4.47234 4.17549 4.47234 3.99875 4.64908L2.12088 6.54904C1.94414 6.70369 1.94414 6.9688 2.0767 7.14554L3.02668 8.36063C3.20342 8.53737 3.20342 8.80248 3.09295 9.0234C2.82784 9.50944 2.62901 10.0397 2.45227 10.5699C2.38599 10.8129 2.18716 10.9896 1.94414 11.0117L0.397666 11.2106C0.17674 11.2547 0 11.4315 0 11.6524V14.3256C0 14.5686 0.17674 14.7454 0.397666 14.7675L1.94414 14.9663C2.18716 15.0105 2.38599 15.1872 2.45227 15.4081C2.62901 15.9605 2.82784 16.4686 3.09295 16.9767C3.22551 17.1976 3.20342 17.4628 3.04877 17.6395L2.09879 18.8546C1.96624 19.0313 1.96624 19.2964 2.14298 19.4511L4.02084 21.351C4.19758 21.5057 4.4406 21.5278 4.61734 21.3952L5.85452 20.4452C6.05335 20.2906 6.29637 20.2906 6.5173 20.4011C7.00333 20.6662 7.53355 20.8871 8.08587 21.0417C8.32889 21.108 8.48353 21.3069 8.52772 21.5499L8.72655 23.0963C8.74864 23.3173 8.94748 23.494 9.1684 23.494H11.8416C12.0625 23.494 12.2614 23.3173 12.2834 23.0963L12.4823 21.5499C12.5265 21.3069 12.6811 21.108 12.9241 21.0417C13.0346 20.9976 13.123 20.9755 13.2113 20.9313L10.8695 18.479C10.737 18.5011 10.6265 18.5011 10.494 18.5011C7.44518 18.5011 4.99291 16.0488 4.99291 13.0001C4.99291 9.97338 7.44518 7.52111 10.494 7.52111C13.5206 7.52111 15.9729 9.97338 15.9729 13.0001C15.9729 13.1326 15.9729 13.2652 15.9508 13.3756L18.4473 15.6953C18.4915 15.607 18.5135 15.5186 18.5577 15.4081C18.624 15.1651 18.8228 14.9884 19.0659 14.9663L20.6123 14.7675C20.8333 14.7454 21.01 14.5465 21.01 14.3256V11.6524C20.9879 11.4315 20.8112 11.2547 20.5902 11.2106Z" fill="#5141BD"/>
<path d="M13.8296 14.1483C14.161 13.1541 14.0505 12.0274 13.4761 11.1216C12.6366 9.84021 11.2227 9.30999 9.89714 9.53091C9.56575 9.5751 9.45529 9.99485 9.67621 10.2379L10.5157 11.0774C11.068 11.6297 11.068 12.4913 10.5157 13.0436C9.96342 13.5959 9.07972 13.5959 8.54949 13.0436L7.70998 12.2041C7.48905 11.9832 7.0693 12.0936 7.00302 12.425C6.82628 13.5076 7.13557 14.6785 7.97509 15.518C8.94716 16.4901 10.3611 16.7773 11.5983 16.3575L16.061 21.1074C16.7458 21.8365 17.8946 21.8585 18.5795 21.1516C19.2865 20.4446 19.2644 19.2958 18.5353 18.633L13.8296 14.1483Z" fill="#5141BD"/>
<path d="M28.2698 6H34.8498C36.2498 6 37.3898 6.36 38.2698 7.08C39.1498 7.78667 39.5898 8.70667 39.5898 9.84C39.5898 10.4533 39.4364 11.0133 39.1298 11.52C38.8231 12.0267 38.4031 12.4467 37.8698 12.78C38.5364 13.1 39.0698 13.54 39.4698 14.1C39.8698 14.6467 40.0698 15.26 40.0698 15.94C40.0698 17.1533 39.6164 18.1333 38.7098 18.88C37.8164 19.6267 36.6364 20 35.1698 20H28.2698V6ZM34.6698 8.4H31.1698V11.72H34.6698C35.2831 11.72 35.7764 11.5733 36.1498 11.28C36.5231 10.9733 36.7098 10.5667 36.7098 10.06C36.7098 9.55333 36.5231 9.15333 36.1498 8.86C35.7764 8.55333 35.2831 8.4 34.6698 8.4ZM34.9498 17.6C35.6164 17.6 36.1498 17.44 36.5498 17.12C36.9498 16.7867 37.1498 16.34 37.1498 15.78C37.1498 15.2467 36.9498 14.8133 36.5498 14.48C36.1498 14.1467 35.6164 13.98 34.9498 13.98H31.1698V17.6H34.9498ZM41.6579 13.14H49.1779V15.46H41.6579V13.14ZM54.973 20L49.293 6H52.433L56.713 17.06L61.093 6H64.093L58.333 20H54.973ZM61.2657 20L67.0257 6H70.3857L76.0657 20H72.9257L71.5057 16.32H65.7257L64.2857 20H61.2657ZM66.6257 14H70.6257L68.6457 8.84L66.6257 14ZM77.2541 20V6H84.0941C84.8008 6 85.4475 6.10667 86.0341 6.32C86.6341 6.53333 87.1475 6.83333 87.5741 7.22C88.0008 7.59333 88.3341 8.04667 88.5741 8.58C88.8141 9.11333 88.9341 9.7 88.9341 10.34C88.9341 11.22 88.6808 12.0067 88.1741 12.7C87.6808 13.3933 87.0208 13.9067 86.1941 14.24L89.2941 20H86.0541L83.3141 14.64H80.1541V20H77.2541ZM83.8341 8.5H80.1541V12.26H83.8341C84.4875 12.26 85.0075 12.0867 85.3941 11.74C85.7941 11.3933 85.9941 10.94 85.9941 10.38C85.9941 9.82 85.7941 9.36667 85.3941 9.02C85.0075 8.67333 84.4875 8.5 83.8341 8.5ZM89.6837 20L95.4437 6H98.8037L104.484 20H101.344L99.9237 16.32H94.1437L92.7037 20H89.6837ZM95.0437 14H99.0437L97.0637 8.84L95.0437 14Z" fill="#5141BD"/>
</svg>
