<svg width="44" height="42" viewBox="0 0 44 42" fill="none" xmlns="http://www.w3.org/2000/svg">
<path d="M14.8318 0V14.3706C9.67055 14.5224 5.4707 18.7728 5.4707 23.9847C5.4707 29.2977 9.77175 33.5988 15.0848 33.5988C19.2341 33.5988 22.7255 31.0181 24.0917 27.3749H43.6741V0H14.8318ZM26.9759 1.01201H32.036V9.61411L29.506 6.22387L26.9759 9.61411V1.01201ZM15.0848 32.5362C10.3284 32.5362 6.48271 28.6905 6.48271 23.9341C6.48271 19.1776 10.3284 15.332 15.0848 15.332C19.8413 15.332 23.6869 19.1776 23.6869 23.9341C23.6869 28.6905 19.8413 32.5362 15.0848 32.5362ZM42.6621 26.3123H24.4459C24.6483 25.5533 24.7495 24.7943 24.7495 23.9847C24.7495 18.9246 20.8027 14.7754 15.8438 14.4212V1.01201H25.9639V12.6501L29.506 7.94429L33.048 12.6501V1.01201H42.6621V26.3123Z" fill="#111111"/>
<path d="M16.0404 38.0024L18.115 35.1181L17.3054 34.5109L14.1682 38.812L18.4692 41.9998L19.0764 41.1902L16.091 39.0144C22.2643 38.6096 27.5773 34.5109 29.5001 28.54L28.5387 28.2364C26.7677 33.8025 21.8088 37.5975 16.0404 38.0024ZM9.1587 11.184L7.79249 14.7767L8.7539 15.1815L10.6261 10.2226L9.81651 9.91902C9.81651 9.91902 9.81651 9.91902 9.76591 9.91902L5.66726 8.2998L5.31306 9.26122L8.5009 10.5262C3.33964 12.9551 0 18.2175 0 23.986C0 25.5546 0.253003 27.0726 0.708408 28.5906L1.66982 28.287C1.21441 26.9208 1.01201 25.4534 1.01201 24.0366C1.01201 18.4705 4.25045 13.5117 9.1587 11.184Z" fill="#111111"/>
<path d="M11.3984 26.398V20.5183H12.2804V23.2566L15.1279 20.5183H16.2366L13.2043 23.3574L16.3374 26.398H15.1279L12.2804 23.601V26.398H11.3984Z" fill="#111111"/>
<path d="M16.7607 26.398V22.1226H17.6006V22.6686C17.7294 22.4614 17.8946 22.3046 18.0962 22.1982C18.2978 22.0862 18.5246 22.0302 18.7766 22.0302C18.8662 22.0302 18.9445 22.0358 19.0117 22.047C19.0789 22.0582 19.1433 22.075 19.2049 22.0974V22.8534C19.1265 22.8254 19.0453 22.803 18.9613 22.7862C18.8774 22.7694 18.7934 22.761 18.7094 22.761C18.463 22.761 18.2418 22.8282 18.0458 22.9626C17.8554 23.0914 17.707 23.2846 17.6006 23.5422V26.398H16.7607Z" fill="#111111"/>
</svg>
