<svg width="10" height="18" viewBox="0 0 10 18" fill="none" xmlns="http://www.w3.org/2000/svg">
    <path d="M9.68788 8.89567C9.66232 8.66831 9.56188 8.45376 9.40019 8.28117L2.19586 0.489939C1.93743 0.135421 1.48266 -0.0504127 1.026 0.0118968C0.569347 0.0742063 0.191636 0.373629 0.0543687 0.782139C-0.0828982 1.19065 0.0445775 1.63594 0.38229 1.92761L6.9237 9L0.38229 16.0724C0.0445775 16.3641 -0.0828982 16.8094 0.0543687 17.2179C0.191636 17.6264 0.569347 17.9258 1.026 17.9881C1.48266 18.0504 1.93743 17.8646 2.19586 17.5101L9.40019 9.71883C9.61191 9.49164 9.71566 9.1948 9.68788 8.89567Z" fill="#166CC8" />
</svg>