<svg width="11" height="11" viewBox="0 0 11 11" fill="none" xmlns="http://www.w3.org/2000/svg">
<path d="M10.4336 5.18333C10.3939 5.08103 10.3344 4.98758 10.2586 4.90833L6.09191 0.741658C6.01421 0.66396 5.92197 0.602326 5.82045 0.560276C5.71893 0.518225 5.61013 0.496582 5.50024 0.496582C5.27833 0.496582 5.0655 0.584739 4.90858 0.741658C4.83088 0.819357 4.76924 0.911599 4.72719 1.01312C4.68514 1.11464 4.6635 1.22344 4.6635 1.33333C4.6635 1.55524 4.75166 1.76807 4.90858 1.92499L7.65858 4.66666H1.33358C1.11256 4.66666 0.900602 4.75446 0.744322 4.91074C0.588042 5.06702 0.500244 5.27898 0.500244 5.49999C0.500244 5.72101 0.588042 5.93297 0.744322 6.08925C0.900602 6.24553 1.11256 6.33333 1.33358 6.33333H7.65858L4.90858 9.07499C4.83047 9.15246 4.76847 9.24463 4.72617 9.34618C4.68386 9.44773 4.66208 9.55665 4.66208 9.66666C4.66208 9.77667 4.68386 9.88559 4.72617 9.98714C4.76847 10.0887 4.83047 10.1809 4.90858 10.2583C4.98605 10.3364 5.07821 10.3984 5.17976 10.4407C5.28131 10.483 5.39023 10.5048 5.50024 10.5048C5.61025 10.5048 5.71917 10.483 5.82072 10.4407C5.92227 10.3984 6.01444 10.3364 6.09191 10.2583L10.2586 6.09166C10.3344 6.01241 10.3939 5.91895 10.4336 5.81666C10.5169 5.61378 10.5169 5.38621 10.4336 5.18333Z" fill="white"/>
</svg>
