<svg width="28" height="28" viewBox="0 0 28 28" fill="none" xmlns="http://www.w3.org/2000/svg">
<path d="M7 2.33333L3.5 7V23.3333C3.5 23.9522 3.74583 24.5457 4.18342 24.9832C4.621 25.4208 5.21449 25.6667 5.83333 25.6667H22.1667C22.7855 25.6667 23.379 25.4208 23.8166 24.9832C24.2542 24.5457 24.5 23.9522 24.5 23.3333V7L21 2.33333H7Z" stroke="#166CC8" stroke-width="1.5" stroke-linecap="round" stroke-linejoin="round"/>
<path d="M3.5 7H24.5" stroke="#166CC8" stroke-width="1.5" stroke-linecap="round" stroke-linejoin="round"/>
<path d="M18.6663 11.6667C18.6663 12.9043 18.1747 14.0913 17.2995 14.9665C16.4243 15.8417 15.2374 16.3333 13.9997 16.3333C12.762 16.3333 11.575 15.8417 10.6998 14.9665C9.82467 14.0913 9.33301 12.9043 9.33301 11.6667" stroke="#166CC8" stroke-width="1.5" stroke-linecap="round" stroke-linejoin="round"/>
</svg>
