<svg width="23" height="21" viewBox="0 0 23 21" fill="none" xmlns="http://www.w3.org/2000/svg">
<path d="M20.9969 11.5H20.8969V11.6V19.3C20.8969 19.5652 20.7916 19.8196 20.604 20.0071C20.4165 20.1946 20.1621 20.3 19.8969 20.3H2.29692C2.03171 20.3 1.77735 20.1946 1.58982 20.0071C1.40228 19.8196 1.29692 19.5652 1.29692 19.3V11.6V11.5H1.19692H0.196924V9.40991L1.2789 4.00001H20.9149L21.9969 9.40991V11.5H20.9969ZM3.39692 11.5H3.29692V11.6V18.2V18.3H3.39692H18.7969H18.8969V18.2V11.6V11.5H18.7969H3.39692ZM2.24287 9.38039L2.21894 9.50001H2.34092H19.8529H19.9749L19.951 9.38039L19.291 6.08039L19.2749 6.00001H19.1929H3.00092H2.91894L2.90287 6.08039L2.24287 9.38039ZM4.59692 12.8H13.1969V15.9H4.59692V12.8ZM1.29692 0.700006H20.8969V2.70001H1.29692V0.700006Z" fill="white" stroke="#166CC8" stroke-width="0.2"/>
</svg>
