<svg width="32" height="32" viewBox="0 0 32 32" fill="none" xmlns="http://www.w3.org/2000/svg">
<path d="M29.3333 10.4267C29.3398 10.3423 29.3398 10.2577 29.3333 10.1733V10.1733L26.6667 3.50666C26.5625 3.24314 26.3771 3.01964 26.1374 2.8686C25.8976 2.71756 25.616 2.64683 25.3333 2.66666H6.66666C6.39962 2.6664 6.13865 2.74634 5.91757 2.8961C5.69648 3.04587 5.52546 3.25858 5.42666 3.50666L2.75999 10.1733C2.75356 10.2577 2.75356 10.3423 2.75999 10.4267C2.71568 10.5009 2.68414 10.582 2.66666 10.6667V10.6667C2.6815 11.5883 2.93496 12.4904 3.40232 13.2849C3.86967 14.0794 4.53497 14.7392 5.33332 15.2V28C5.33332 28.3536 5.4738 28.6928 5.72385 28.9428C5.9739 29.1929 6.31303 29.3333 6.66666 29.3333H25.3333C25.6869 29.3333 26.0261 29.1929 26.2761 28.9428C26.5262 28.6928 26.6667 28.3536 26.6667 28V15.2533C27.4727 14.788 28.143 14.1198 28.6108 13.3151C29.0786 12.5105 29.3277 11.5974 29.3333 10.6667V10.6667C29.3458 10.5871 29.3458 10.5062 29.3333 10.4267V10.4267ZM17.3333 26.6667H14.6667V21.3333H17.3333V26.6667ZM24 26.6667H20V20C20 19.6464 19.8595 19.3072 19.6095 19.0572C19.3594 18.8071 19.0203 18.6667 18.6667 18.6667H13.3333C12.9797 18.6667 12.6406 18.8071 12.3905 19.0572C12.1405 19.3072 12 19.6464 12 20V26.6667H7.99999V16C8.75928 15.9957 9.50891 15.8293 10.1987 15.512C10.8885 15.1947 11.5027 14.7338 12 14.16C12.5005 14.7275 13.116 15.182 13.8057 15.4933C14.4953 15.8047 15.2433 15.9657 16 15.9657C16.7567 15.9657 17.5047 15.8047 18.1943 15.4933C18.884 15.182 19.4995 14.7275 20 14.16C20.4973 14.7338 21.1114 15.1947 21.8013 15.512C22.4911 15.8293 23.2407 15.9957 24 16V26.6667ZM24 13.3333C23.2927 13.3333 22.6145 13.0524 22.1144 12.5523C21.6143 12.0522 21.3333 11.3739 21.3333 10.6667C21.3333 10.313 21.1928 9.9739 20.9428 9.72385C20.6928 9.47381 20.3536 9.33333 20 9.33333C19.6464 9.33333 19.3072 9.47381 19.0572 9.72385C18.8071 9.9739 18.6667 10.313 18.6667 10.6667C18.6667 11.3739 18.3857 12.0522 17.8856 12.5523C17.3855 13.0524 16.7072 13.3333 16 13.3333C15.2927 13.3333 14.6145 13.0524 14.1144 12.5523C13.6143 12.0522 13.3333 11.3739 13.3333 10.6667C13.3333 10.313 13.1928 9.9739 12.9428 9.72385C12.6928 9.47381 12.3536 9.33333 12 9.33333C11.6464 9.33333 11.3072 9.47381 11.0572 9.72385C10.8071 9.9739 10.6667 10.313 10.6667 10.6667C10.6798 11.0169 10.6238 11.3662 10.5019 11.6948C10.3801 12.0233 10.1947 12.3247 9.95632 12.5816C9.71798 12.8385 9.43138 13.0459 9.11287 13.1921C8.79436 13.3382 8.45018 13.4202 8.09999 13.4333C7.39275 13.4599 6.70393 13.2043 6.18508 12.723C5.92817 12.4847 5.72072 12.198 5.57458 11.8795C5.42843 11.561 5.34646 11.2169 5.33332 10.8667L7.57332 5.33333H24.4267L26.6667 10.8667C26.6161 11.5387 26.313 12.1667 25.8183 12.6243C25.3236 13.0819 24.6739 13.3352 24 13.3333V13.3333Z" fill="white"/>
</svg>
