<svg width="60" height="60" viewBox="0 0 60 60" fill="none" xmlns="http://www.w3.org/2000/svg">
<path fill-rule="evenodd" clip-rule="evenodd" d="M24.1556 12.3H48.5921V35.5136H32.2099C31.0095 38.5568 28.0607 40.7004 24.5665 40.7004C20.0282 40.7004 16.3543 37.0265 16.3543 32.4883C16.3543 28.1009 19.8369 24.5129 24.1556 24.2842V12.3ZM25.399 13.5434V24.3342C29.5474 24.7254 32.8208 28.2286 32.8208 32.4883C32.8208 33.0911 32.7551 33.6618 32.6237 34.228H47.3487V13.5434H39.7365V23.6406L36.5847 19.4532L33.4329 23.6406V13.5434H25.399ZM34.6762 13.5434V19.9098L36.5847 17.3525L38.4932 19.9098V13.5434H34.6762ZM24.5665 25.4773C20.713 25.4773 17.5977 28.5926 17.5977 32.4461C17.5977 36.2995 20.713 39.4149 24.5665 39.4149C28.4199 39.4149 31.5352 36.2995 31.5352 32.4461C31.5352 28.5926 28.4199 25.4773 24.5665 25.4773ZM16.6061 19.154L20.1767 20.5647H20.2171L21.1135 20.9008L19.4091 25.4152L18.2385 24.9223L19.2633 22.2277C15.4975 24.2183 13.0434 28.1443 13.0434 32.5299C13.0434 33.6924 13.2096 34.8935 13.5814 36.0089L13.6456 36.2016L12.4572 36.5769L12.3989 36.3826C12.0145 35.1015 11.8 33.817 11.8 32.4877C11.8 27.7568 14.4528 23.4273 18.5922 21.2905L16.1727 20.3304L16.6061 19.154ZM35.6534 35.7791L36.8367 36.1528L36.7751 36.3443C35.2034 41.2247 30.9552 44.6282 25.9596 45.1651L28.1795 46.7831L27.4325 47.7791L23.5289 44.8858L26.3798 40.9773L27.3735 41.7226L25.785 43.9309C30.3268 43.446 34.1867 40.3887 35.5929 35.9693L35.6534 35.7791ZM21.497 29.6001V34.5001H22.232V32.1691L24.605 34.5001H25.613L23.002 31.9661L25.529 29.6001H24.605L22.232 31.8821V29.6001H21.497ZM25.9658 30.9371V34.5001H26.6658V32.1201C26.7544 31.9055 26.8781 31.7445 27.0368 31.6371C27.2001 31.5251 27.3844 31.4691 27.5898 31.4691C27.6598 31.4691 27.7298 31.4761 27.7998 31.4901C27.8698 31.5041 27.9374 31.5228 28.0028 31.5461V30.9161C27.9514 30.8975 27.8978 30.8835 27.8418 30.8741C27.7858 30.8648 27.7204 30.8601 27.6458 30.8601C27.4358 30.8601 27.2468 30.9068 27.0788 31.0001C26.9108 31.0888 26.7731 31.2195 26.6658 31.3921V30.9371H25.9658Z" fill="white"/>
</svg>
