<svg width="32" height="32" viewBox="0 0 32 32" fill="none" xmlns="http://www.w3.org/2000/svg">
<path d="M28.9466 20.7733L22.92 14.7599C23.0461 14.1458 23.1087 13.5203 23.1066 12.8933C23.1062 11.1741 22.6723 9.48288 21.8452 7.97579C21.0181 6.46871 19.8244 5.19445 18.3745 4.2708C16.9246 3.34716 15.2652 2.80393 13.5498 2.69133C11.8343 2.57874 10.1182 2.90041 8.55998 3.62661C8.36256 3.7168 8.19014 3.85381 8.0577 4.02576C7.92525 4.1977 7.83679 4.39938 7.79998 4.61328C7.76331 4.82446 7.7781 5.04137 7.84309 5.24562C7.90808 5.44987 8.02136 5.63545 8.17331 5.78661L13.9733 11.5733L11.5733 13.9733L5.78665 8.17328C5.6342 8.02368 5.44805 7.9129 5.24386 7.85025C5.03967 7.7876 4.82342 7.77492 4.61331 7.81328C4.40075 7.84874 4.19996 7.93519 4.02812 8.06523C3.85628 8.19527 3.71853 8.36502 3.62664 8.55995C2.89801 10.1233 2.57662 11.8455 2.69237 13.5664C2.80811 15.2873 3.35724 16.951 4.28866 18.4027C5.22008 19.8544 6.50354 21.0469 8.01964 21.8694C9.53573 22.6918 11.2352 23.1174 12.96 23.1066C13.587 23.1086 14.2125 23.0461 14.8266 22.9199L20.84 28.9466C20.9639 29.0716 21.1114 29.1708 21.2739 29.2385C21.4364 29.3062 21.6106 29.341 21.7866 29.341C21.9627 29.341 22.1369 29.3062 22.2994 29.2385C22.4619 29.1708 22.6094 29.0716 22.7333 28.9466C22.8583 28.8227 22.9575 28.6752 23.0252 28.5127C23.0929 28.3502 23.1277 28.176 23.1277 27.9999C23.1277 27.8239 23.0929 27.6497 23.0252 27.4872C22.9575 27.3247 22.8583 27.1772 22.7333 27.0533L16.2 20.5199C16.0367 20.3578 15.8342 20.2406 15.6123 20.1799C15.3903 20.1191 15.1564 20.1168 14.9333 20.1733C14.2895 20.3457 13.6264 20.4353 12.96 20.4399C11.9627 20.4487 10.9736 20.2601 10.0495 19.885C9.12544 19.5098 8.28474 18.9556 7.57583 18.2541C6.86692 17.5526 6.30381 16.7178 5.91894 15.7977C5.53406 14.8777 5.33503 13.8906 5.33331 12.8933C5.33158 12.4466 5.36726 12.0006 5.43998 11.5599L10.6666 16.7999C10.7906 16.9249 10.9381 17.0241 11.1005 17.0918C11.263 17.1595 11.4373 17.1943 11.6133 17.1943C11.7893 17.1943 11.9636 17.1595 12.1261 17.0918C12.2886 17.0241 12.436 16.9249 12.56 16.7999L16.8 12.5199C17.0403 12.2713 17.1746 11.9391 17.1746 11.5933C17.1746 11.2475 17.0403 10.9152 16.8 10.6666L11.6133 5.43995C12.0541 5.36796 12.5 5.33229 12.9466 5.33328C14.9494 5.33681 16.8689 6.13487 18.2838 7.55226C19.6986 8.96965 20.4933 10.8906 20.4933 12.8933C20.4887 13.5597 20.399 14.2228 20.2266 14.8666C20.1702 15.0897 20.1725 15.3236 20.2332 15.5456C20.294 15.7676 20.4111 15.97 20.5733 16.1333L27.1066 22.6666C27.3577 22.9177 27.6982 23.0587 28.0533 23.0587C28.4084 23.0587 28.7489 22.9177 29 22.6666C29.251 22.4155 29.3921 22.075 29.3921 21.7199C29.3921 21.3649 29.251 21.0244 29 20.7733H28.9466Z" fill="white"/>
</svg>
