<svg width="96" height="21" viewBox="0 0 96 21" fill="none" xmlns="http://www.w3.org/2000/svg">
<path d="M22.2212 14.1991H24.5365V10.5003H27.6141V14.1991H29.9294V5.24854H27.6141V8.49559H24.5365V5.24854H22.2212V14.1991Z" fill="#333333"/>
<path d="M37.7224 11.4603C37.8353 9.25791 36.6494 7.50732 34.3341 7.50732C32.4141 7.50732 30.8329 8.94732 30.8329 10.9238C30.8329 13.0979 32.2729 14.3685 34.3906 14.3685C35.8306 14.3685 37.2424 13.7191 37.6094 12.2226H35.6047C35.4071 12.7026 34.8988 12.9285 34.3906 12.9285C33.4871 12.9285 32.9788 12.3356 32.9506 11.4603H37.7224ZM32.9506 10.2744C33.0635 9.4838 33.5718 8.94732 34.3341 8.94732C35.04 8.94732 35.5482 9.54027 35.6047 10.2744H32.9506Z" fill="#333333"/>
<path d="M40.7153 5.24854H38.5977V6.88618H40.7153V5.24854ZM38.5977 14.1991H40.7153V7.705H38.5977V14.1991Z" fill="#333333"/>
<path d="M41.9294 14.1991H44.0471V11.0085C44.0471 9.68144 44.3859 9.22968 45.1483 9.22968C45.713 9.22968 45.9389 9.70968 45.9389 10.472V14.1709H48.0565V11.0085C48.0565 9.96379 48.1412 9.25791 49.073 9.25791C49.6377 9.25791 49.9765 9.68144 49.9765 10.3591V14.1709H52.0941V10.3026C52.0941 9.06026 51.8683 7.50732 49.8071 7.50732C48.9318 7.50732 48.2824 7.87438 47.7741 8.55203C47.4353 7.76144 46.7012 7.50732 45.8824 7.50732C45.0918 7.50732 44.4141 7.93085 44.0189 8.58027H43.9906V7.70497H41.9294V14.1991Z" fill="#333333"/>
<path d="M55.4541 5.24854H53.3365V6.88618H55.4541V5.24854ZM53.3082 14.1991H55.4259V7.705H53.3082V14.1991Z" fill="#333333"/>
<path d="M58.8706 5.24854H56.7529V14.1991H58.8706V5.24854Z" fill="#333333"/>
<path d="M62.2871 5.24854H60.1694V6.88618H62.2871V5.24854ZM60.1694 14.1991H62.2871V7.705H60.1694V14.1991Z" fill="#333333"/>
<path d="M63.1342 12.0528C63.1906 13.8599 64.7718 14.3963 66.3247 14.3963C67.793 14.3963 69.4306 13.8316 69.4306 12.081C69.4306 11.5446 69.0918 10.5846 67.7647 10.3305C66.7765 10.1046 65.3647 9.99163 65.3647 9.39869C65.3647 8.94692 65.9295 8.91869 66.2683 8.91869C66.5224 8.91869 66.7765 8.97516 66.9459 9.0881C67.1153 9.20104 67.2283 9.37045 67.2283 9.6528H69.2047C69.12 7.95869 67.6518 7.53516 66.2118 7.53516C64.9412 7.53516 63.2471 7.95869 63.2471 9.53986C63.2471 11.2904 64.913 11.3187 66.2683 11.6575C66.6353 11.7422 67.313 11.8552 67.313 12.3352C67.313 12.8434 66.72 13.0128 66.3247 13.0128C66.0142 13.0128 65.7318 12.9281 65.5342 12.7869C65.3083 12.6175 65.1953 12.3916 65.1953 12.0528H63.1342Z" fill="#333333"/>
<path d="M74.1176 7.67667H72.7906V5.7002H70.6729V7.67667H69.6V9.0602H70.6729V11.9684C70.6729 13.7473 71.1247 14.2555 72.96 14.2555C73.3553 14.2555 73.7506 14.199 74.1176 14.199V12.6178C73.92 12.6178 73.7506 12.6461 73.5529 12.6461C73.1012 12.6461 72.7906 12.5331 72.7906 12.0249V9.0602H74.1176V7.67667Z" fill="#333333"/>
<path d="M83.3506 12.2226C83.1248 12.7026 82.7577 12.9285 82.1083 12.9285C81.2048 12.9285 80.8095 12.1944 80.7812 11.4603H85.4683C85.6377 9.34262 84.3953 7.50732 82.1648 7.50732C81.4024 7.50732 80.6683 7.76144 80.1318 8.32615C79.5954 7.67674 78.6071 7.50732 77.7601 7.50732C77.0259 7.50732 76.2636 7.62027 75.6989 7.95909C75.1342 8.29791 74.7107 8.86262 74.6824 9.70968H76.6871C76.8001 9.14497 77.1671 8.89085 77.7601 8.89085C78.4377 8.89085 78.9742 9.00379 78.9742 9.59674C78.9742 9.82262 78.8895 9.96379 78.2401 10.1614C76.7718 10.472 74.4565 10.3026 74.4565 12.4203C74.4565 13.7473 75.4448 14.3967 76.8001 14.3967C78.0707 14.3967 78.9177 14.1426 79.8212 13.4085C80.4142 14.1426 81.4306 14.3967 82.3342 14.3967C83.0401 14.3967 83.7177 14.1991 84.2542 13.832C84.8189 13.465 85.2424 12.9285 85.4118 12.2509H83.3506V12.2226ZM77.5624 13.0697C77.1389 13.0697 76.5459 12.9285 76.5459 12.3356C76.5459 11.7991 76.9977 11.6297 77.5342 11.5167C78.0707 11.4038 78.6636 11.3756 78.9459 11.1497C78.9177 11.7144 79.0871 13.0697 77.5624 13.0697ZM80.7812 10.2744C80.8659 9.59674 81.3177 8.94732 82.0801 8.94732C82.8706 8.94732 83.3224 9.54027 83.3224 10.2744H80.7812Z" fill="#333333"/>
<path d="M86.3154 14.1991H88.433V12.1097L88.9977 11.5732L90.5789 14.1991H93.1483L90.4659 10.1332L92.8377 7.67677H90.3812L88.433 9.85089V5.24854H86.3154V14.1991Z" fill="#333333"/>
<path d="M95.6612 5.24854H93.5435V6.88618H95.6612V5.24854ZM93.5153 14.1991H95.633V7.705H93.5153V14.1991Z" fill="#333333"/>
<path d="M11.7459 15.2436C11.5765 15.2436 10.6447 15.2436 10.2212 15.2436C9.03529 15.3283 8.69647 16.0342 8.38588 16.7119C8.10352 16.3448 8.49882 15.5825 8.04705 15.3001C7.87764 15.2436 7.84941 15.2436 7.48235 15.2719C7.11529 15.2719 6.91764 15.2719 6.91764 15.0178V10.6695C6.94588 10.6695 9.54352 8.12835 9.51529 8.12835L12.1412 10.6695V15.0742C12.1129 15.2154 11.9153 15.2436 11.7459 15.2436ZM18.5788 6.63188C18.5788 5.75658 17.9294 5.10717 17.0541 5.07894H14.7953C14.4847 5.0507 14.4 4.82482 14.3718 4.68364V2.086C14.3718 2.086 14.4565 0.674231 13.1859 0.645996C11.8871 0.645996 12 2.086 12 2.086V4.68364C12 4.82482 11.8871 5.02247 11.5765 5.07894H10.0235C10.0235 5.07894 12.4235 7.50717 12.4235 7.39423C12.4235 7.39423 15.5576 7.39423 15.9247 7.39423C16.1788 7.39423 16.32 7.53541 16.32 7.84599C16.32 7.90247 16.32 11.9683 16.32 12.1378C16.32 12.166 16.32 12.3354 16.2071 12.4766C16.1788 12.5048 14.5412 14.7354 14.4847 14.8483C14.2588 15.1589 14.3153 14.6507 14.3153 14.5378C14.3153 14.5378 14.3153 10.4719 14.3153 10.2178C14.3153 10.1048 14.3153 10.0483 14.2306 9.99188C14.0612 9.82247 9.51529 5.47423 9.43058 5.38952C9.34588 5.47423 4.8 9.8507 4.63058 9.99188C4.54588 10.0483 4.54588 10.1048 4.54588 10.2178C4.54588 10.5001 4.54588 14.5378 4.54588 14.5378C4.54588 14.6789 4.60235 15.1589 4.37647 14.8483C4.29176 14.7354 2.68235 12.5331 2.65411 12.4766C2.54117 12.3354 2.54117 12.166 2.54117 12.1378C2.54117 11.9683 2.54117 7.9307 2.54117 7.84599C2.54117 7.53541 2.68235 7.39423 2.93647 7.39423C3.30353 7.39423 6.43764 7.39423 6.43764 7.39423C6.40941 7.47894 8.83764 5.07894 8.83764 5.07894H7.2847C6.97411 5.0507 6.88941 4.82482 6.86117 4.68364V2.086C6.86117 2.086 6.94588 0.645996 5.67529 0.645996C4.37647 0.645996 4.48941 2.086 4.48941 2.086V4.68364C4.48941 4.82482 4.37647 5.02247 4.06588 5.07894H1.80705C0.959996 5.07894 0.282349 5.75658 0.282349 6.63188V12.8719C0.282349 12.9283 0.282348 13.0695 0.367054 13.1825C0.508231 13.4083 3.16235 16.9095 3.16235 16.9095C3.72705 17.6436 4.4047 17.5872 4.51764 17.5872H7.7647H7.84941C8.01882 17.5872 7.99059 17.7848 7.99059 17.8695C7.99059 18.3495 7.99059 19.9589 7.99059 20.1001C7.99059 20.2695 8.10353 20.2978 8.21647 20.2978H10.5035C10.6165 20.2978 10.7294 20.2978 10.7294 20.1001C10.7294 19.9589 10.7294 18.3495 10.7294 17.8695C10.7294 17.7848 10.7012 17.5872 10.8706 17.5872H10.9553H14.2023C14.3435 17.5872 15.0212 17.6436 15.5576 16.9095C15.5576 16.9095 18.2118 13.4083 18.3529 13.1825C18.4376 13.0695 18.4376 12.9283 18.4376 12.8719L18.5788 6.63188Z" fill="#333333"/>
</svg>
