<svg width="61" height="15" viewBox="0 0 61 15" fill="none" xmlns="http://www.w3.org/2000/svg">
<path d="M41.0383 1.21186L40.0018 0.5L38.6405 2.74799L39.3024 3.19759L41.0383 1.21186Z" fill="#333333"/>
<path d="M59.3096 5.48302C58.3979 4.53386 57.124 4.07178 55.463 4.07178H53.4773V14.2002H55.463C57.1115 14.2002 58.3979 13.7381 59.3096 12.8265C60.2213 11.9148 60.7208 10.6659 60.7208 9.16723C60.7083 7.60612 60.2088 6.3947 59.3096 5.48302ZM54.5888 5.14582H55.5005C56.6994 5.14582 57.736 5.52048 58.4728 6.21986C59.1722 6.96919 59.5843 7.91834 59.5843 9.12976C59.5843 10.3786 59.1722 11.3778 58.3854 12.1146C57.686 12.7765 56.6869 13.1512 55.488 13.1512H54.5763V5.14582H54.5888Z" fill="#333333"/>
<path d="M52.6904 14.5001V4.1968H51.6539V11.84L44.2605 3.78467V14.0755H45.3345V6.4323L52.6904 14.5001Z" fill="#333333"/>
<path d="M43.3113 3.98438H42.2373V10.1664C42.2373 10.7034 42.1998 11.1155 42.1499 11.3653C42.0624 11.6525 41.9875 11.9023 41.8626 12.1146C41.7003 12.4019 41.413 12.7016 41.0384 12.9014C40.6637 13.1137 40.2516 13.1887 39.8394 13.1887C39.4273 13.1887 39.0152 13.1012 38.6405 12.9014C38.2658 12.6891 37.9786 12.4019 37.7663 12.1146C37.6414 11.8648 37.554 11.6151 37.5165 11.3653C37.479 11.153 37.479 10.7408 37.479 10.1664V3.98438H36.405V10.4661C36.3675 11.0531 36.4425 11.5027 36.5299 11.8399C36.6173 12.2145 36.7797 12.5517 36.9795 12.8764C37.3042 13.2886 37.7288 13.6258 38.2658 13.8755C38.7654 14.1628 39.3024 14.2877 39.8394 14.2877C40.4139 14.2877 40.9135 14.1628 41.4505 13.8755C41.95 13.6258 42.3622 13.2886 42.6869 12.8764C43.099 12.3394 43.3113 11.5027 43.3113 10.4661V3.98438Z" fill="#333333"/>
<path d="M35.4558 10.9284C35.5433 10.4663 35.5807 9.85436 35.5807 9.10503H31.6592V10.1791H34.4317C34.4317 10.4663 34.3943 10.766 34.3443 10.9284C34.3069 11.1407 34.182 11.3405 34.0571 11.5903C33.7698 12.0899 33.3577 12.502 32.8207 12.8392C32.3211 13.1264 31.7466 13.3013 31.1722 13.3013C30.0981 13.3013 29.1864 12.8892 28.4496 12.0524C27.7003 11.2156 27.3381 10.229 27.3381 9.01761C27.3381 7.89361 27.7127 6.98193 28.4995 6.15766C29.2863 5.37086 30.198 4.95873 31.2721 4.95873C31.8965 4.95873 32.471 5.17104 33.0455 5.54571C33.545 5.83295 34.0321 6.29504 34.4068 6.86953L35.1936 6.12019C34.6565 5.40833 34.0821 4.87131 33.4576 4.49664C32.7957 4.12198 32.0464 3.90967 31.2721 3.90967C29.9108 3.90967 28.7119 4.40922 27.7627 5.40833C26.7761 6.40744 26.2765 7.60637 26.314 9.01761C26.2765 10.5163 26.7636 11.8026 27.7252 12.8392C28.6744 13.8383 29.8358 14.3753 31.2346 14.3753C31.8965 14.3753 32.521 14.213 33.1829 13.8758C33.7573 13.5386 34.2944 13.089 34.7565 12.552C35.0437 12.0399 35.2935 11.5029 35.4558 10.9284Z" fill="#333333"/>
<path d="M12.0642 1.21186L11.0401 0.5L9.66635 2.74799L10.3283 3.19759L12.0642 1.21186Z" fill="#333333"/>
<path d="M26.2016 1.21186L25.1651 0.5L23.8038 2.74799L24.4657 3.19759L26.2016 1.21186Z" fill="#333333"/>
<path d="M25.5022 3.94702H24.4657V14.2878H25.5022V3.94702Z" fill="#333333"/>
<path d="M23.554 4.15924H22.5299V11.8399L15.0865 3.73462V14.0754H16.1606V6.43221L23.554 14.5V4.15924Z" fill="#333333"/>
<path d="M13.1882 11.3778C13.1507 11.665 13.0633 11.9148 12.9384 12.1271C12.7261 12.4143 12.4888 12.7141 12.0767 12.9139C11.702 13.1262 11.2899 13.2011 10.8778 13.2011C10.4282 13.2011 10.0535 13.1137 9.67885 12.9139C9.26671 12.7016 8.97947 12.4143 8.76716 12.1271C8.64227 11.8773 8.51738 11.6275 8.51738 11.3778C8.47992 11.1655 8.47992 10.7533 8.47992 10.1788V3.98438H7.36841V10.4661C7.36841 11.0531 7.40587 11.5027 7.4933 11.8399C7.61819 12.2145 7.78054 12.5517 7.99285 12.8764C8.31756 13.2886 8.74218 13.6258 9.2792 13.8755C9.77876 14.1628 10.3158 14.2877 10.8903 14.2877C11.4273 14.2877 12.0018 14.1628 12.5013 13.8755C13.0383 13.6258 13.4505 13.2886 13.7877 12.8764C14.1998 12.3394 14.4121 11.5027 14.4121 10.4661V3.98438H13.3006V10.1664C13.2631 10.7159 13.2631 11.128 13.1882 11.3778Z" fill="#333333"/>
<path d="M6.81891 4.07178H5.33274L1.07404 8.43039V4.07178H0V14.2002H1.07404V9.84163L1.36128 9.55438L5.42016 14.2002H6.9438L2.18555 8.80505L6.81891 4.07178Z" fill="#333333"/>
</svg>
