<svg width="42" height="28" viewBox="0 0 42 28" fill="none" xmlns="http://www.w3.org/2000/svg">
<g clip-path="url(#clip0_7645:74167)">
<path d="M1.67866 27.9958C1.23345 27.9958 0.806477 27.8189 0.491667 27.5041C0.176858 27.1893 0 26.7624 0 26.3171V1.67866C0 1.23345 0.176858 0.806477 0.491667 0.491667C0.806477 0.176858 1.23345 0 1.67866 0L39.5324 0C39.9776 0 40.4046 0.176858 40.7194 0.491667C41.0342 0.806477 41.211 1.23345 41.211 1.67866V26.3088C41.211 26.754 41.0342 27.1809 40.7194 27.4957C40.4046 27.8106 39.9776 27.9874 39.5324 27.9874L1.67866 27.9958Z" fill="#777777"/>
<path d="M39.0744 2.06055H2.15234V25.9352H39.0744V2.06055Z" fill="white"/>
<path d="M38.5506 2.58496H2.67773V25.4147H38.5506V2.58496Z" fill="white"/>
<path d="M5.42631 12.8165V6.56352H3.89453V4.72119H9.90832V6.56352H8.38074V12.8165H5.42631Z" fill="#777777"/>
<path d="M11.965 12.8751C11.7129 12.9018 11.4581 12.8765 11.2163 12.8007C10.9745 12.7249 10.7508 12.6002 10.5591 12.4344C10.2414 12.0012 10.0922 11.4672 10.1394 10.932V6.39127C10.1169 6.15597 10.1424 5.91853 10.2146 5.69343C10.2867 5.46832 10.4039 5.26026 10.5591 5.08192C10.9475 4.7714 11.44 4.62125 11.9356 4.66225H15.0411C15.5604 4.61691 16.0781 4.76651 16.4931 5.08192C16.6507 5.26045 16.7693 5.4698 16.8416 5.69665C16.9138 5.92351 16.9381 6.16292 16.9128 6.39966V10.932C16.9648 11.4715 16.8153 12.0112 16.4931 12.447C16.0763 12.775 15.5472 12.9257 15.0201 12.8667L11.965 12.8751ZM13.0309 6.93264V10.6089C13.0164 10.7874 13.0528 10.9664 13.1358 11.1251C13.1903 11.1798 13.2561 11.2221 13.3286 11.2489C13.401 11.2757 13.4785 11.2864 13.5555 11.2804C13.6321 11.2859 13.7091 11.2753 13.7813 11.2493C13.8536 11.2233 13.9196 11.1824 13.9752 11.1293C14.0585 10.9692 14.0949 10.7888 14.0801 10.6089V6.93264C14.0944 6.75095 14.0565 6.56896 13.971 6.40806C13.9172 6.35179 13.8518 6.30798 13.7793 6.27971C13.7068 6.25143 13.629 6.23938 13.5513 6.24439C13.4736 6.23849 13.3955 6.25013 13.3228 6.27846C13.2502 6.30679 13.1849 6.35108 13.1316 6.40806C13.0488 6.56984 13.0125 6.75144 13.0267 6.93264" fill="#777777"/>
<path d="M15.2634 2.97559H13.8281V4.30172H15.2634V2.97559Z" fill="#777777"/>
<path d="M13.2784 2.97559H11.8516V4.30172H13.2784V2.97559Z" fill="#777777"/>
<path d="M17.6172 12.8165V4.72119H20.5884V10.97H22.4181V12.8165H17.6172Z" fill="#777777"/>
<path d="M23.351 12.8165L21.7227 4.72119H24.8282L25.3653 9.86628L25.8941 4.72119H28.9996L27.3713 12.8165H23.351Z" fill="#777777"/>
<path d="M36.0584 4.72119V10.9364C36.1105 11.4746 35.9609 12.013 35.6387 12.4472C35.2206 12.7758 34.6899 12.9266 34.1615 12.8669H31.1525C30.9033 12.8963 30.6506 12.8742 30.4102 12.802C30.1699 12.7298 29.9469 12.6091 29.755 12.4472C29.4355 12.0149 29.2862 11.4801 29.3354 10.9448V4.72119H32.315V10.458C32.3075 10.6032 32.3379 10.7478 32.4031 10.8777C32.435 10.9229 32.478 10.959 32.528 10.9826C32.5781 11.0061 32.6334 11.0162 32.6885 11.012C32.7451 11.0169 32.802 11.0076 32.854 10.9848C32.9061 10.9621 32.9516 10.9267 32.9864 10.8819C33.0561 10.7445 33.0866 10.5906 33.0746 10.437V4.72119H36.0584Z" fill="#777777"/>
<path d="M5.41016 24.2442V13.7651H7.48749V22.0535H9.53965V24.2442H5.41016Z" fill="#9D9FA2"/>
<path d="M12.0812 13.7651H10.0039V24.2483H12.0812V13.7651Z" fill="#9D9FA2"/>
<path d="M12.7617 20.0389H14.86V22.091C14.8456 22.2348 14.8702 22.3798 14.9314 22.5107C14.9579 22.5501 14.9945 22.5817 15.0372 22.6023C15.08 22.6229 15.1275 22.6319 15.1748 22.6282C15.217 22.63 15.2591 22.6227 15.2982 22.6068C15.3373 22.5908 15.3725 22.5667 15.4014 22.5359C15.4309 22.5053 15.4539 22.4692 15.4691 22.4295C15.4842 22.3898 15.4912 22.3475 15.4895 22.3051V20.5299C15.5 20.3728 15.4711 20.2156 15.4056 20.0725C15.3229 19.9518 15.21 19.8549 15.0783 19.7913L13.6808 18.952C13.3839 18.7848 13.143 18.5337 12.9883 18.2301C12.8273 17.8631 12.7526 17.4639 12.7701 17.0635V15.8548C12.7701 14.919 12.9044 14.3273 13.1688 14.0755C13.4332 13.8237 14.0963 13.6978 15.1538 13.6978C16.1442 13.6978 16.7905 13.8111 17.0885 14.0335C17.2499 14.1832 17.3742 14.3685 17.4515 14.5747C17.5287 14.7808 17.5567 15.0022 17.5333 15.2211V17.416H15.4728V15.922C15.4868 15.7778 15.4606 15.6325 15.3972 15.5023C15.3667 15.4649 15.3273 15.4356 15.2826 15.4173C15.2378 15.399 15.1893 15.3921 15.1412 15.3974C15.097 15.3953 15.0531 15.4051 15.014 15.4258C14.9749 15.4465 14.942 15.4772 14.9188 15.5149C14.8608 15.6467 14.8377 15.7912 14.8516 15.9346V16.9124C14.8421 17.0667 14.8709 17.221 14.9356 17.3614C15.0178 17.4836 15.1307 17.582 15.2629 17.6468L16.5513 18.3854C16.8615 18.5437 17.1205 18.7867 17.2983 19.0862C17.465 19.4309 17.5429 19.8117 17.5249 20.1942V22.582C17.5315 22.8491 17.5118 23.1162 17.4662 23.3794C17.4326 23.5425 17.3654 23.6969 17.2689 23.8326C17.1272 24.0264 16.9199 24.1622 16.6856 24.2145C16.1903 24.3062 15.6865 24.3428 15.1832 24.3237C14.1004 24.3404 13.429 24.1936 13.1604 23.9208C12.8918 23.648 12.7617 23.0814 12.7617 22.1414V20.0389Z" fill="#9D9FA2"/>
<path d="M18.9898 24.2483V15.6578H17.9238V13.7651H22.1373V15.662L21.0671 15.6578V24.2483H18.9898Z" fill="#9D9FA2"/>
<path d="M24.6769 13.7651H22.5996V24.2483H24.6769V13.7651Z" fill="#9D9FA2"/>
<path d="M25.5918 24.2483V13.7651H27.5306L28.5672 19.1368V13.7651H30.376V24.2483H28.4329L27.388 19.1117V24.2483H25.5918Z" fill="#9D9FA2"/>
<path d="M31.2695 24.2483V13.7651H33.2126L34.2491 19.1368V13.7651H36.0579V24.2483H34.1107L33.0699 19.1117V24.2483H31.2695Z" fill="#9D9FA2"/>
</g>
<defs>
<clipPath id="clip0_7645:74167">
<rect width="41.2278" height="28" fill="white"/>
</clipPath>
</defs>
</svg>
