<svg xmlns="http://www.w3.org/2000/svg" viewBox="0 0 98.24 66.72"><defs><style>.cls-1{fill:#005ca9;}.cls-2{fill:#fff;}.cls-3{fill:#e30613;}</style></defs><g id="Layer_2" data-name="Layer 2"><g id="Layer_1-2" data-name="Layer 1"><path class="cls-1" d="M4,66.71a4,4,0,0,1-4-4V4A4,4,0,0,1,4,0H94.2a4,4,0,0,1,4,4V62.69a4,4,0,0,1-4,4Z"/><rect class="cls-2" x="5.13" y="4.91" width="87.98" height="56.89"/><rect class="cls-2" x="6.38" y="6.16" width="85.48" height="54.4"/><polygon class="cls-1" points="12.93 30.54 12.93 15.64 9.28 15.64 9.28 11.25 23.61 11.25 23.61 15.64 19.97 15.64 19.97 30.54 12.93 30.54"/><path class="cls-1" d="M28.51,30.68a4.41,4.41,0,0,1-3.35-1.05,5.27,5.27,0,0,1-1-3.58V15.23a4.15,4.15,0,0,1,1-3.12,4.64,4.64,0,0,1,3.28-1h7.4a5,5,0,0,1,3.46,1,4.09,4.09,0,0,1,1,3.14V26.05a5.23,5.23,0,0,1-1,3.61,4.81,4.81,0,0,1-3.51,1Zm2.54-14.16v8.76a2.26,2.26,0,0,0,.25,1.23,1.27,1.27,0,0,0,1,.37,1.31,1.31,0,0,0,1-.36,2.28,2.28,0,0,0,.25-1.24V16.52a2.28,2.28,0,0,0-.26-1.25,1.27,1.27,0,0,0-1-.39,1.24,1.24,0,0,0-1,.39,2.34,2.34,0,0,0-.25,1.25"/><rect class="cls-1" x="32.95" y="7.09" width="3.42" height="3.16"/><rect class="cls-1" x="28.24" y="7.09" width="3.4" height="3.16"/><polygon class="cls-1" points="41.98 30.54 41.98 11.25 49.06 11.25 49.06 26.14 53.42 26.14 53.42 30.54 41.98 30.54"/><polygon class="cls-1" points="55.64 30.54 51.76 11.25 59.16 11.25 60.44 23.51 61.7 11.25 69.1 11.25 65.22 30.54 55.64 30.54"/><path class="cls-1" d="M85.92,11.25V26.06a5.2,5.2,0,0,1-1,3.6,4.82,4.82,0,0,1-3.52,1H74.23a4.37,4.37,0,0,1-3.33-1,5.22,5.22,0,0,1-1-3.58V11.25H77V24.92a2,2,0,0,0,.21,1,.76.76,0,0,0,.68.32.81.81,0,0,0,.71-.31,2,2,0,0,0,.21-1.06V11.25Z"/><polygon class="cls-3" points="12.89 57.77 12.89 32.8 17.84 32.8 17.84 52.55 22.73 52.55 22.73 57.77 12.89 57.77"/><rect class="cls-3" x="23.84" y="32.8" width="4.95" height="24.98"/><path class="cls-3" d="M30.41,47.75h5v4.89a1.91,1.91,0,0,0,.17,1,.64.64,0,0,0,.58.28.7.7,0,0,0,.54-.22.75.75,0,0,0,.21-.55V48.92a2.26,2.26,0,0,0-.2-1.09,2,2,0,0,0-.78-.67l-3.33-2a4.12,4.12,0,0,1-1.65-1.72,6.24,6.24,0,0,1-.52-2.78V37.78c0-2.23.32-3.64.95-4.24s2.21-.9,4.73-.9c2.36,0,3.9.27,4.61.8a3.37,3.37,0,0,1,1.06,2.83V41.5H36.87V37.94a1.87,1.87,0,0,0-.18-1,.69.69,0,0,0-.61-.25.59.59,0,0,0-.53.28,2,2,0,0,0-.16,1V40.3a2.23,2.23,0,0,0,.2,1.07,2,2,0,0,0,.78.68l3.07,1.76a4.39,4.39,0,0,1,1.78,1.67,5.47,5.47,0,0,1,.54,2.64v5.69a9.72,9.72,0,0,1-.14,1.9,2.86,2.86,0,0,1-.47,1.08,2.36,2.36,0,0,1-1.39.91,16.27,16.27,0,0,1-3.58.26C33.6,58,32,57.65,31.36,57s-.95-2-.95-4.24Z"/><polygon class="cls-3" points="45.25 57.78 45.25 37.31 42.71 37.31 42.71 32.8 52.75 32.8 52.75 37.32 50.2 37.31 50.2 57.78 45.25 57.78"/><rect class="cls-3" x="53.85" y="32.8" width="4.95" height="24.98"/><polygon class="cls-3" points="60.98 57.78 60.98 32.8 65.6 32.8 68.07 45.6 68.07 32.8 72.38 32.8 72.38 57.78 67.75 57.78 65.26 45.54 65.26 57.78 60.98 57.78"/><polygon class="cls-3" points="74.51 57.78 74.51 32.8 79.14 32.8 81.61 45.6 81.61 32.8 85.92 32.8 85.92 57.78 81.28 57.78 78.8 45.54 78.8 57.78 74.51 57.78"/></g></g></svg>
